<svg xmlns="http://www.w3.org/2000/svg" viewBox="0 0 442 220" width="442" height="220">
<path d="M 30.00 200.50 L 29.00 200.50 L 28.50 200.00 L 28.00 199.50 L 27.00 199.50 L 26.00 199.50 L 25.50 199.00 L 25.00 198.50 L 24.00 198.50 L 23.00 198.50 L 22.50 198.00 L 22.00 197.50 L 21.50 197.00 L 21.50 196.00 L 22.00 195.50 L 23.00 195.50 L 23.50 195.00 L 24.00 194.50 L 24.50 194.00 L 25.00 193.50 L 25.50 193.00 L 26.00 192.50 L 26.50 192.00 L 27.00 191.50 L 27.50 191.00 L 27.50 190.00 L 28.00 189.50 L 28.50 189.00 L 28.50 188.00 L 29.00 187.50 L 29.50 187.00 L 29.50 186.00 L 30.00 185.50 L 30.50 185.00 L 30.50 184.00 L 31.00 183.50 L 31.50 183.00 L 31.50 182.00 L 32.00 181.50 L 32.50 181.00 L 32.50 180.00 L 33.00 179.50 L 33.50 179.00 L 33.50 178.00 L 34.00 177.50 L 34.50 177.00 L 34.50 176.00 L 35.00 175.50 L 35.50 175.00 L 35.50 174.00 L 35.50 173.00 L 36.00 172.50 L 36.50 172.00 L 36.50 171.00 L 37.00 170.50 L 37.50 170.00 L 37.50 169.00 L 38.00 168.50 L 38.50 168.00 L 38.50 167.00 L 39.00 166.50 L 39.50 166.00 L 39.50 165.00 L 39.50 164.00 L 40.00 163.50 L 40.50 163.00 L 40.50 162.00 L 41.00 161.50 L 41.50 161.00 L 41.50 160.00 L 42.00 159.50 L 42.50 159.00 L 42.50 158.00 L 43.00 157.50 L 43.50 157.00 L 43.50 156.00 L 43.50 155.00 L 44.00 154.50 L 44.50 154.00 L 44.50 153.00 L 44.50 152.00 L 45.00 151.50 L 45.50 151.00 L 45.50 150.00 L 45.50 149.00 L 46.00 148.50 L 46.50 148.00 L 46.50 147.00 L 46.50 146.00 L 46.50 145.00 L 47.00 144.50 L 47.50 144.00 L 47.50 143.00 L 47.50 142.00 L 47.50 141.00 L 48.00 140.50 L 48.50 140.00 L 48.50 139.00 L 48.50 138.00 L 48.50 137.00 L 48.50 136.00 L 48.50 135.00 L 48.50 134.00 L 48.50 133.00 L 49.00 132.50 L 49.50 132.00 L 49.50 131.00 L 49.50 130.00 L 49.50 129.00 L 49.50 128.00 L 49.50 127.00 L 49.50 126.00 L 49.50 125.00 L 49.50 124.00 L 49.50 123.00 L 49.50 122.00 L 49.50 121.00 L 49.50 120.00 L 49.50 119.00 L 49.50 118.00 L 49.50 117.00 L 49.50 116.00 L 49.50 115.00 L 49.00 114.50 L 48.50 114.00 L 48.50 113.00 L 48.50 112.00 L 48.50 111.00 L 48.50 110.00 L 48.50 109.00 L 48.50 108.00 L 48.00 107.50 L 47.50 107.00 L 47.50 106.00 L 47.50 105.00 L 47.50 104.00 L 47.50 103.00 L 47.00 102.50 L 46.50 102.00 L 46.50 101.00 L 46.50 100.00 L 46.50 99.00 L 46.00 98.50 L 45.50 98.00 L 45.50 97.00 L 45.50 96.00 L 45.00 95.50 L 44.50 95.00 L 44.50 94.00 L 44.50 93.00 L 44.00 92.50 L 43.50 92.00 L 43.50 91.00 L 43.00 90.50 L 42.50 90.00 L 42.00 89.50 L 41.50 89.00 L 41.50 88.00 L 41.00 87.50 L 40.50 87.00 L 40.50 86.00 L 40.00 85.50 L 39.50 85.00 L 39.50 84.00 L 39.00 83.50 L 38.50 83.00 L 38.50 82.00 L 38.50 81.00 L 38.00 80.50 L 37.50 80.00 L 37.50 79.00 L 37.50 78.00 L 37.00 77.50 L 36.50 77.00 L 36.50 76.00 L 36.50 75.00 L 36.50 74.00 L 36.50 73.00 L 36.00 72.50 L 35.50 72.00 L 35.50 71.00 L 35.50 70.00 L 35.50 69.00 L 35.50 68.00 L 35.50 67.00 L 35.50 66.00 L 35.50 65.00 L 35.50 64.00 L 35.50 63.00 L 35.50 62.00 L 35.50 61.00 L 35.50 60.00 L 35.50 59.00 L 35.50 58.00 L 35.50 57.00 L 35.50 56.00 L 35.50 55.00 L 35.50 54.00 L 36.00 53.50 L 36.50 53.00 L 36.50 52.00 L 36.50 51.00 L 36.50 50.00 L 36.50 49.00 L 37.00 48.50 L 37.50 48.00 L 37.50 47.00 L 37.50 46.00 L 38.00 45.50 L 38.50 45.00 L 38.50 44.00 L 38.50 43.00 L 39.00 42.50 L 39.50 42.00 L 39.50 41.00 L 40.00 40.50 L 40.50 40.00 L 40.50 39.00 L 41.00 38.50 L 41.50 38.00 L 41.50 37.00 L 42.00 36.50 L 42.50 36.00 L 42.50 35.00 L 43.00 34.50 L 43.50 34.00 L 44.00 33.50 L 44.50 33.00 L 44.50 32.00 L 45.00 31.50 L 45.50 31.00 L 46.00 30.50 L 46.50 30.00 L 47.00 29.50 L 47.50 29.00 L 48.00 28.50 L 48.50 28.00 L 48.50 27.00 L 49.00 26.50 L 49.50 26.00 L 50.00 25.50 L 50.50 25.00 L 51.00 24.50 L 51.50 24.00 L 52.00 23.50 L 52.50 23.00 L 53.00 22.50 L 54.00 22.50 L 54.50 22.00 L 55.00 21.50 L 55.50 21.00 L 56.00 20.50 L 56.50 20.00 L 57.00 19.50 L 57.50 19.00 L 58.00 18.50 L 59.00 18.50 L 59.50 18.00 L 60.00 17.50 L 61.00 17.50 L 61.50 17.00 L 62.00 16.50 L 62.50 16.00 L 63.00 15.50 L 64.00 15.50 L 64.50 15.00 L 65.00 14.50 L 66.00 14.50 L 66.50 14.00 L 67.00 13.50 L 68.00 13.50 L 69.00 13.50 L 69.50 13.00 L 70.00 12.50 L 71.00 12.50 L 72.00 12.50 L 72.50 12.00 L 73.00 11.50 L 74.00 11.50 L 75.00 11.50 L 75.50 11.00 L 76.00 10.50 L 77.00 10.50 L 78.00 10.50 L 79.00 10.50 L 80.00 10.50 L 81.00 10.50 L 81.50 10.00 L 82.00 9.50 L 83.00 9.50 L 84.00 9.50 L 85.00 9.50 L 86.00 9.50 L 87.00 9.50 L 88.00 9.50 L 89.00 9.50 L 90.00 9.50 L 91.00 9.50 L 92.00 9.50 L 93.00 9.50 L 94.00 9.50 L 95.00 9.50 L 96.00 9.50 L 96.50 10.00 L 97.00 10.50 L 98.00 10.50 L 99.00 10.50 L 100.00 10.50 L 101.00 10.50 L 101.50 11.00 L 102.00 11.50 L 103.00 11.50 L 104.00 11.50 L 104.50 12.00 L 105.00 12.50 L 106.00 12.50 L 107.00 12.50 L 107.50 13.00 L 108.00 13.50 L 109.00 13.50 L 110.00 13.50 L 110.50 14.00 L 111.00 14.50 L 112.00 14.50 L 112.50 15.00 L 113.00 15.50 L 114.00 15.50 L 114.50 16.00 L 115.00 16.50 L 115.50 17.00 L 116.00 17.50 L 117.00 17.50 L 117.50 18.00 L 118.00 18.50 L 119.00 18.50 L 119.50 19.00 L 120.00 19.50 L 120.50 20.00 L 121.00 20.50 L 121.50 21.00 L 122.00 21.50 L 122.50 22.00 L 123.00 22.50 L 124.00 22.50 L 124.50 23.00 L 125.00 23.50 L 125.50 24.00 L 126.00 24.50 L 126.50 25.00 L 127.00 25.50 L 127.50 26.00 L 128.00 26.50 L 128.50 27.00 L 129.00 27.50 L 129.50 28.00 L 129.50 29.00 L 130.00 29.50 L 130.50 30.00 L 131.00 30.50 L 131.50 31.00 L 132.00 31.50 L 132.50 32.00 L 132.50 33.00 L 133.00 33.50 L 133.50 34.00 L 134.00 34.50 L 134.50 35.00 L 134.50 36.00 L 135.00 36.50 L 135.50 37.00 L 135.50 38.00 L 136.00 38.50 L 136.50 39.00 L 136.50 40.00 L 137.00 40.50 L 137.50 41.00 L 137.50 42.00 L 138.00 42.50 L 138.50 43.00 L 138.50 44.00 L 138.50 45.00 L 139.00 45.50 L 139.50 46.00 L 139.50 47.00 L 139.50 48.00 L 140.00 48.50 L 140.50 49.00 L 140.50 50.00 L 140.50 51.00 L 140.50 52.00 L 140.50 53.00 L 141.00 53.50 L 141.50 54.00 L 141.50 55.00 L 141.50 56.00 L 141.50 57.00 L 141.50 58.00 L 141.50 59.00 L 141.50 60.00 L 141.50 61.00 L 141.50 62.00 L 141.50 63.00 L 141.50 64.00 L 141.50 65.00 L 141.50 66.00 L 141.50 67.00 L 141.50 68.00 L 141.50 69.00 L 141.50 70.00 L 141.50 71.00 L 141.50 72.00 L 141.00 72.50 L 140.50 73.00 L 140.50 74.00 L 140.50 75.00 L 140.50 76.00 L 140.50 77.00 L 140.00 77.50 L 139.50 78.00 L 139.50 79.00 L 139.50 80.00 L 139.00 80.50 L 138.50 81.00 L 138.50 82.00 L 138.50 83.00 L 138.00 83.50 L 137.50 84.00 L 137.50 85.00 L 137.00 85.50 L 136.50 86.00 L 136.50 87.00 L 136.00 87.50 L 135.50 88.00 L 135.50 89.00 L 135.00 89.50 L 134.50 90.00 L 134.50 91.00 L 134.00 91.50 L 133.50 92.00 L 133.00 92.50 L 132.50 93.00 L 132.50 94.00 L 132.00 94.50 L 131.50 95.00 L 131.00 95.50 L 130.50 96.00 L 130.00 96.50 L 129.50 97.00 L 129.00 97.50 L 128.50 98.00 L 128.50 99.00 L 128.00 99.50 L 127.50 100.00 L 127.00 100.50 L 126.50 101.00 L 126.00 101.50 L 125.50 102.00 L 125.00 102.50 L 124.00 102.50 L 123.50 103.00 L 123.00 103.50 L 122.50 104.00 L 122.00 104.50 L 121.50 105.00 L 121.00 105.50 L 120.50 106.00 L 120.00 106.50 L 119.00 106.50 L 118.50 107.00 L 118.00 107.50 L 117.50 108.00 L 117.00 108.50 L 116.00 108.50 L 115.50 109.00 L 115.00 109.50 L 114.00 109.50 L 113.50 110.00 L 113.00 110.50 L 112.50 111.00 L 112.00 111.50 L 111.00 111.50 L 110.00 111.50 L 109.50 112.00 L 109.00 112.50 L 108.00 112.50 L 107.50 113.00 L 107.00 113.50 L 106.00 113.50 L 105.00 113.50 L 104.50 114.00 L 104.00 114.50 L 103.00 114.50 L 102.00 114.50 L 101.00 114.50 L 100.50 115.00 L 100.00 115.50 L 99.00 115.50 L 98.00 115.50 L 97.00 115.50 L 96.50 116.00 L 96.00 116.50 L 95.00 116.50 L 94.00 116.50 L 93.50 117.00 L 93.00 117.50 L 92.00 117.50 L 91.00 117.50 L 90.50 118.00 L 90.00 118.50 L 89.00 118.50 L 88.50 119.00 L 88.00 119.50 L 87.00 119.50 L 86.50 120.00 L 86.00 120.50 L 85.00 120.50 L 84.50 121.00 L 84.00 121.50 L 83.50 122.00 L 83.00 122.50 L 82.00 122.50 L 81.50 123.00 L 81.00 123.50 L 80.50 124.00 L 80.00 124.50 L 79.00 124.50 L 78.50 125.00 L 78.00 125.50 L 77.50 126.00 L 77.00 126.50 L 76.50 127.00 L 76.00 127.50 L 75.50 128.00 L 75.00 128.50 L 74.00 128.50 L 73.50 129.00 L 73.00 129.50 L 72.50 130.00 L 72.00 130.50 L 71.50 131.00 L 71.00 131.50 L 70.50 132.00 L 70.00 132.50 L 69.50 133.00 L 69.00 133.50 L 68.50 134.00 L 68.00 134.50 L 67.50 135.00 L 67.00 135.50 L 66.50 136.00 L 66.00 136.50 L 65.50 137.00 L 65.00 137.50 L 64.50 138.00 L 64.00 138.50 L 63.50 139.00 L 63.50 140.00 L 63.00 140.50 L 62.50 141.00 L 62.00 141.50 L 61.50 142.00 L 61.00 142.50 L 60.50 143.00 L 60.00 143.50 L 59.50 144.00 L 59.50 145.00 L 59.00 145.50 L 58.50 146.00 L 58.00 146.50 L 57.50 147.00 L 57.00 147.50 L 56.50 148.00 L 56.50 149.00 L 56.00 149.50 L 55.50 150.00 L 55.00 150.50 L 54.50 151.00 L 54.50 152.00 L 54.00 152.50 L 53.50 153.00 L 53.00 153.50 L 52.50 154.00 L 52.50 155.00 L 52.00 155.50 L 51.50 156.00 L 51.00 156.50 L 50.50 157.00 L 50.50 158.00 L 50.00 158.50 L 49.50 159.00 L 49.50 160.00 L 49.00 160.50 L 48.50 161.00 L 48.00 161.50 L 47.50 162.00 L 47.50 163.00 L 47.00 163.50 L 46.50 164.00 L 46.50 165.00 L 46.00 165.50 L 45.50 166.00 L 45.50 167.00 L 45.00 167.50 L 44.50 168.00 L 44.50 169.00 L 44.50 170.00 L 44.00 170.50 L 43.50 171.00 L 43.50 172.00 L 43.00 172.50 L 42.50 173.00 L 42.50 174.00 L 42.00 174.50 L 41.50 175.00 L 41.50 176.00 L 41.00 176.50 L 40.50 177.00 L 40.50 178.00 L 40.00 178.50 L 39.50 179.00 L 39.50 180.00 L 39.00 180.50 L 38.50 181.00 L 38.50 182.00 L 38.00 182.50 L 37.50 183.00 L 37.50 184.00 L 37.00 184.50 L 36.50 185.00 L 36.00 185.50 L 35.50 186.00 L 35.50 187.00 L 35.00 187.50 L 34.50 188.00 L 34.50 189.00 L 34.00 189.50 L 33.50 190.00 L 33.50 191.00 L 33.00 191.50 L 32.50 192.00 L 32.50 193.00 L 32.00 193.50 L 31.50 194.00 L 31.50 195.00 L 31.50 196.00 L 31.00 196.50 L 30.50 197.00 L 30.50 198.00 L 30.50 199.00 L 30.50 200.00 L 30.00 200.50 Z" fill="#5a7d5d"/>
<path d="M 137.50 66.00 L 137.50 65.00 L 137.50 64.00 L 137.50 63.00 L 137.50 62.00 L 137.50 61.00 L 137.50 60.00 L 137.50 59.00 L 137.50 58.00 L 137.50 57.00 L 137.50 56.00 L 137.50 55.00 L 137.00 54.50 L 136.50 54.00 L 136.50 53.00 L 136.50 52.00 L 136.50 51.00 L 136.50 50.00 L 136.00 49.50 L 135.50 49.00 L 135.50 48.00 L 135.50 47.00 L 135.00 46.50 L 134.50 46.00 L 134.50 45.00 L 134.00 44.50 L 133.50 44.00 L 133.50 43.00 L 133.50 42.00 L 133.00 41.50 L 132.50 41.00 L 132.50 40.00 L 132.00 39.50 L 131.50 39.00 L 131.00 38.50 L 130.50 38.00 L 130.50 37.00 L 130.00 36.50 L 129.50 36.00 L 129.00 35.50 L 128.50 35.00 L 128.50 34.00 L 128.00 33.50 L 127.50 33.00 L 127.00 32.50 L 126.50 32.00 L 126.00 31.50 L 125.50 31.00 L 125.00 30.50 L 124.50 30.00 L 124.00 29.50 L 123.50 29.00 L 123.00 28.50 L 122.50 28.00 L 122.00 27.50 L 121.50 27.00 L 121.00 26.50 L 120.50 26.00 L 120.00 25.50 L 119.50 25.00 L 119.00 24.50 L 118.50 24.00 L 118.00 23.50 L 117.50 23.00 L 117.00 22.50 L 116.00 22.50 L 115.50 22.00 L 115.00 21.50 L 114.50 21.00 L 114.00 20.50 L 113.00 20.50 L 112.50 20.00 L 112.00 19.50 L 111.00 19.50 L 110.50 19.00 L 110.00 18.50 L 109.00 18.50 L 108.50 18.00 L 108.00 17.50 L 107.00 17.50 L 106.00 17.50 L 105.50 17.00 L 105.00 16.50 L 104.00 16.50 L 103.50 16.00 L 103.00 15.50 L 102.00 15.50 L 101.00 15.50 L 100.00 15.50 L 99.50 15.00 L 99.00 14.50 L 98.00 14.50 L 97.00 14.50 L 96.00 14.50 L 95.00 14.50 L 94.00 14.50 L 93.50 14.00 L 93.00 13.50 L 92.00 13.50 L 91.00 13.50 L 90.00 13.50 L 89.00 13.50 L 88.00 13.50 L 87.00 13.50 L 86.00 13.50 L 85.00 13.50 L 84.50 14.00 L 84.00 14.50 L 83.00 14.50 L 82.00 14.50 L 81.00 14.50 L 80.00 14.50 L 79.00 14.50 L 78.50 15.00 L 78.00 15.50 L 77.00 15.50 L 76.00 15.50 L 75.00 15.50 L 74.50 16.00 L 74.00 16.50 L 73.00 16.50 L 72.00 16.50 L 71.50 17.00 L 71.00 17.50 L 70.00 17.50 L 69.50 18.00 L 69.00 18.50 L 68.00 18.50 L 67.00 18.50 L 66.50 19.00 L 66.00 19.50 L 65.50 20.00 L 65.00 20.50 L 64.00 20.50 L 63.50 21.00 L 63.00 21.50 L 62.00 21.50 L 61.50 22.00 L 61.00 22.50 L 60.50 23.00 L 60.00 23.50 L 59.00 23.50 L 58.50 24.00 L 58.00 24.50 L 57.50 25.00 L 57.00 25.50 L 56.50 26.00 L 56.00 26.50 L 55.50 27.00 L 55.00 27.50 L 54.50 28.00 L 54.00 28.50 L 53.50 29.00 L 53.00 29.50 L 52.50 30.00 L 52.00 30.50 L 51.50 31.00 L 51.00 31.50 L 50.50 32.00 L 50.00 32.50 L 49.50 33.00 L 49.50 34.00 L 49.00 34.50 L 48.50 35.00 L 48.00 35.50 L 47.50 36.00 L 47.50 37.00 L 47.00 37.50 L 46.50 38.00 L 46.00 38.50 L 45.50 39.00 L 45.50 40.00 L 45.00 40.50 L 44.50 41.00 L 44.50 42.00 L 44.00 42.50 L 43.50 43.00 L 43.50 44.00 L 43.00 44.50 L 42.50 45.00 L 42.50 46.00 L 42.50 47.00 L 42.00 47.50 L 41.50 48.00 L 41.50 49.00 L 41.50 50.00 L 41.00 50.50 L 40.50 51.00 L 40.50 52.00 L 40.50 53.00 L 40.50 54.00 L 40.50 55.00 L 40.00 55.50 L 39.50 56.00 L 39.50 57.00 L 39.50 58.00 L 39.50 59.00 L 39.50 60.00 L 39.50 61.00 L 39.50 62.00 L 39.50 63.00 L 39.50 64.00 L 39.50 65.00 L 40.00 65.50 L 40.50 66.00 L 41.00 66.50 L 42.00 66.50 L 43.00 66.50 L 44.00 66.50 L 44.50 66.00 L 45.00 65.50 L 46.00 65.50 L 46.50 65.00 L 47.00 64.50 L 48.00 64.50 L 48.50 64.00 L 49.00 63.50 L 50.00 63.50 L 51.00 63.50 L 51.50 64.00 L 52.00 64.50 L 53.00 64.50 L 53.50 65.00 L 54.00 65.50 L 55.00 65.50 L 55.50 66.00 L 56.00 66.50 L 57.00 66.50 L 58.00 66.50 L 59.00 66.50 L 59.50 66.00 L 60.00 65.50 L 60.50 65.00 L 60.50 64.00 L 60.00 63.50 L 59.00 63.50 L 58.50 63.00 L 58.00 62.50 L 57.50 62.00 L 57.00 61.50 L 56.50 61.00 L 56.00 60.50 L 55.00 60.50 L 54.50 60.00 L 54.00 59.50 L 53.50 59.00 L 53.00 58.50 L 52.00 58.50 L 51.50 58.00 L 51.00 57.50 L 50.50 57.00 L 50.00 56.50 L 49.50 56.00 L 50.00 55.50 L 50.50 55.00 L 50.50 54.00 L 51.00 53.50 L 51.50 53.00 L 52.00 52.50 L 52.50 52.00 L 53.00 51.50 L 54.00 51.50 L 54.50 52.00 L 55.00 52.50 L 55.50 53.00 L 56.00 53.50 L 56.50 54.00 L 57.00 54.50 L 58.00 54.50 L 58.50 55.00 L 59.00 55.50 L 59.50 56.00 L 60.00 56.50 L 61.00 56.50 L 61.50 57.00 L 62.00 57.50 L 62.50 58.00 L 63.00 58.50 L 63.50 59.00 L 64.00 59.50 L 65.00 59.50 L 65.50 60.00 L 66.00 60.50 L 66.50 61.00 L 67.00 61.50 L 68.00 61.50 L 68.50 62.00 L 69.00 62.50 L 69.50 63.00 L 70.00 63.50 L 71.00 63.50 L 71.50 64.00 L 72.00 64.50 L 73.00 64.50 L 74.00 64.50 L 75.00 64.50 L 75.50 64.00 L 76.00 63.50 L 76.50 63.00 L 76.50 62.00 L 77.00 61.50 L 77.50 61.00 L 78.00 60.50 L 78.50 60.00 L 79.00 59.50 L 80.00 59.50 L 81.00 59.50 L 81.50 60.00 L 82.00 60.50 L 83.00 60.50 L 84.00 60.50 L 85.00 60.50 L 86.00 60.50 L 87.00 60.50 L 88.00 60.50 L 89.00 60.50 L 89.50 61.00 L 90.00 61.50 L 91.00 61.50 L 92.00 61.50 L 93.00 61.50 L 94.00 61.50 L 95.00 61.50 L 95.50 61.00 L 96.00 60.50 L 97.00 60.50 L 97.50 60.00 L 98.00 59.50 L 98.50 59.00 L 99.00 58.50 L 99.50 58.00 L 100.00 57.50 L 100.50 57.00 L 101.00 56.50 L 101.50 56.00 L 102.00 55.50 L 102.50 55.00 L 103.00 54.50 L 104.00 54.50 L 104.50 54.00 L 105.00 53.50 L 105.50 53.00 L 106.00 52.50 L 106.50 52.00 L 107.00 51.50 L 107.50 51.00 L 108.00 50.50 L 108.50 50.00 L 109.00 49.50 L 109.50 49.00 L 110.00 48.50 L 111.00 48.50 L 111.50 48.00 L 112.00 47.50 L 113.00 47.50 L 114.00 47.50 L 115.00 47.50 L 115.50 48.00 L 116.00 48.50 L 117.00 48.50 L 117.50 49.00 L 118.00 49.50 L 119.00 49.50 L 120.00 49.50 L 120.50 50.00 L 121.00 50.50 L 122.00 50.50 L 123.00 50.50 L 123.50 51.00 L 124.00 51.50 L 125.00 51.50 L 125.50 52.00 L 126.00 52.50 L 127.00 52.50 L 127.50 53.00 L 127.50 54.00 L 127.50 55.00 L 127.00 55.50 L 126.50 56.00 L 126.00 56.50 L 125.00 56.50 L 124.00 56.50 L 123.50 56.00 L 123.00 55.50 L 122.00 55.50 L 121.00 55.50 L 120.50 55.00 L 120.00 54.50 L 119.00 54.50 L 118.50 54.00 L 118.00 53.50 L 117.00 53.50 L 116.00 53.50 L 115.00 53.50 L 114.00 53.50 L 113.00 53.50 L 112.50 54.00 L 112.50 55.00 L 112.00 55.50 L 111.50 56.00 L 111.00 56.50 L 110.50 57.00 L 110.00 57.50 L 109.50 58.00 L 109.00 58.50 L 108.50 59.00 L 108.00 59.50 L 107.50 60.00 L 107.00 60.50 L 106.50 61.00 L 106.50 62.00 L 106.00 62.50 L 105.50 63.00 L 105.00 63.50 L 104.50 64.00 L 104.50 65.00 L 105.00 65.50 L 106.00 65.50 L 107.00 65.50 L 107.50 65.00 L 108.00 64.50 L 108.50 64.00 L 109.00 63.50 L 109.50 63.00 L 109.50 62.00 L 110.00 61.50 L 110.50 61.00 L 111.00 60.50 L 111.50 60.00 L 112.00 59.50 L 112.50 59.00 L 113.00 58.50 L 114.00 58.50 L 115.00 58.50 L 116.00 58.50 L 117.00 58.50 L 118.00 58.50 L 119.00 58.50 L 120.00 58.50 L 120.50 59.00 L 121.00 59.50 L 122.00 59.50 L 122.50 60.00 L 123.00 60.50 L 123.50 61.00 L 123.50 62.00 L 124.00 62.50 L 124.50 63.00 L 124.50 64.00 L 124.50 65.00 L 124.50 66.00 L 125.00 66.50 L 126.00 66.50 L 127.00 66.50 L 128.00 66.50 L 129.00 66.50 L 129.50 66.00 L 130.00 65.50 L 131.00 65.50 L 131.50 66.00 L 132.00 66.50 L 133.00 66.50 L 134.00 66.50 L 135.00 66.50 L 136.00 66.50 L 137.00 66.50 L 137.50 66.00 Z" fill="#5a7d5d"/>
<path d="M 186.00 96.50 L 185.00 96.50 L 184.00 96.50 L 183.50 96.00 L 183.00 95.50 L 182.00 95.50 L 181.00 95.50 L 180.00 95.50 L 179.50 95.00 L 179.00 94.50 L 178.00 94.50 L 177.00 94.50 L 176.50 94.00 L 176.00 93.50 L 175.50 93.00 L 175.00 92.50 L 174.50 92.00 L 174.00 91.50 L 173.50 91.00 L 173.50 90.00 L 173.50 89.00 L 173.00 88.50 L 172.50 88.00 L 172.50 87.00 L 172.50 86.00 L 172.50 85.00 L 173.00 84.50 L 174.00 84.50 L 175.00 84.50 L 176.00 84.50 L 177.00 84.50 L 178.00 84.50 L 178.50 85.00 L 178.50 86.00 L 178.50 87.00 L 179.00 87.50 L 179.50 88.00 L 179.50 89.00 L 180.00 89.50 L 181.00 89.50 L 181.50 90.00 L 182.00 90.50 L 183.00 90.50 L 184.00 90.50 L 185.00 90.50 L 186.00 90.50 L 187.00 90.50 L 188.00 90.50 L 189.00 90.50 L 190.00 90.50 L 190.50 90.00 L 191.00 89.50 L 191.50 89.00 L 192.00 88.50 L 192.50 88.00 L 192.50 87.00 L 192.50 86.00 L 192.50 85.00 L 192.00 84.50 L 191.50 84.00 L 191.00 83.50 L 190.50 83.00 L 190.00 82.50 L 189.50 82.00 L 189.00 81.50 L 188.00 81.50 L 187.00 81.50 L 186.50 81.00 L 186.00 80.50 L 185.00 80.50 L 184.50 80.00 L 184.00 79.50 L 183.00 79.50 L 182.50 79.00 L 182.00 78.50 L 181.00 78.50 L 180.50 78.00 L 180.00 77.50 L 179.50 77.00 L 179.00 76.50 L 178.50 76.00 L 178.00 75.50 L 177.50 75.00 L 177.50 74.00 L 177.00 73.50 L 176.50 73.00 L 176.50 72.00 L 176.50 71.00 L 176.50 70.00 L 176.50 69.00 L 177.00 68.50 L 177.50 68.00 L 177.50 67.00 L 177.50 66.00 L 178.00 65.50 L 178.50 65.00 L 179.00 64.50 L 179.50 64.00 L 180.00 63.50 L 180.50 63.00 L 181.00 62.50 L 182.00 62.50 L 182.50 62.00 L 183.00 61.50 L 184.00 61.50 L 185.00 61.50 L 186.00 61.50 L 187.00 61.50 L 188.00 61.50 L 189.00 61.50 L 190.00 61.50 L 191.00 61.50 L 192.00 61.50 L 193.00 61.50 L 194.00 61.50 L 194.50 62.00 L 195.00 62.50 L 196.00 62.50 L 196.50 63.00 L 197.00 63.50 L 198.00 63.50 L 198.50 64.00 L 199.00 64.50 L 199.50 65.00 L 199.50 66.00 L 200.00 66.50 L 200.50 67.00 L 200.50 68.00 L 200.50 69.00 L 201.00 69.50 L 201.50 70.00 L 201.00 70.50 L 200.00 70.50 L 199.00 70.50 L 198.00 70.50 L 197.00 70.50 L 196.00 70.50 L 195.50 70.00 L 195.00 69.50 L 194.50 69.00 L 194.50 68.00 L 194.00 67.50 L 193.50 67.00 L 193.00 66.50 L 192.00 66.50 L 191.00 66.50 L 190.50 66.00 L 190.00 65.50 L 189.00 65.50 L 188.00 65.50 L 187.00 65.50 L 186.50 66.00 L 186.00 66.50 L 185.00 66.50 L 184.50 67.00 L 184.00 67.50 L 183.50 68.00 L 183.00 68.50 L 182.50 69.00 L 182.50 70.00 L 182.50 71.00 L 183.00 71.50 L 183.50 72.00 L 184.00 72.50 L 184.50 73.00 L 185.00 73.50 L 186.00 73.50 L 186.50 74.00 L 187.00 74.50 L 188.00 74.50 L 188.50 75.00 L 189.00 75.50 L 190.00 75.50 L 190.50 76.00 L 191.00 76.50 L 192.00 76.50 L 192.50 77.00 L 193.00 77.50 L 194.00 77.50 L 194.50 78.00 L 195.00 78.50 L 196.00 78.50 L 196.50 79.00 L 197.00 79.50 L 197.50 80.00 L 197.50 81.00 L 198.00 81.50 L 198.50 82.00 L 198.50 83.00 L 198.50 84.00 L 199.00 84.50 L 199.50 85.00 L 199.50 86.00 L 199.00 86.50 L 198.50 87.00 L 198.50 88.00 L 198.50 89.00 L 198.00 89.50 L 197.50 90.00 L 197.50 91.00 L 197.00 91.50 L 196.50 92.00 L 196.00 92.50 L 195.50 93.00 L 195.00 93.50 L 194.50 94.00 L 194.00 94.50 L 193.00 94.50 L 192.50 95.00 L 192.00 95.50 L 191.00 95.50 L 190.00 95.50 L 189.00 95.50 L 188.00 95.50 L 187.00 95.50 L 186.50 96.00 L 186.00 96.50 Z" fill="#5a7d5d"/>
<path d="M 310.00 95.50 L 309.00 95.50 L 308.00 95.50 L 307.00 95.50 L 306.00 95.50 L 305.00 95.50 L 304.00 95.50 L 303.50 95.00 L 303.50 94.00 L 304.00 93.50 L 304.50 93.00 L 304.50 92.00 L 304.50 91.00 L 304.50 90.00 L 304.50 89.00 L 305.00 88.50 L 305.50 88.00 L 305.50 87.00 L 305.50 86.00 L 305.50 85.00 L 306.00 84.50 L 306.50 84.00 L 306.50 83.00 L 306.50 82.00 L 306.50 81.00 L 306.50 80.00 L 307.00 79.50 L 307.50 79.00 L 307.50 78.00 L 307.50 77.00 L 307.50 76.00 L 307.50 75.00 L 308.00 74.50 L 308.50 74.00 L 308.50 73.00 L 308.50 72.00 L 308.50 71.00 L 308.50 70.00 L 309.00 69.50 L 309.50 69.00 L 309.50 68.00 L 309.50 67.00 L 309.50 66.00 L 309.50 65.00 L 310.00 64.50 L 310.50 64.00 L 310.50 63.00 L 310.50 62.00 L 311.00 61.50 L 312.00 61.50 L 313.00 61.50 L 314.00 61.50 L 315.00 61.50 L 316.00 61.50 L 317.00 61.50 L 318.00 61.50 L 319.00 61.50 L 320.00 61.50 L 321.00 61.50 L 322.00 61.50 L 323.00 61.50 L 324.00 61.50 L 325.00 61.50 L 326.00 61.50 L 327.00 61.50 L 328.00 61.50 L 328.50 62.00 L 329.00 62.50 L 330.00 62.50 L 331.00 62.50 L 331.50 63.00 L 332.00 63.50 L 332.50 64.00 L 333.00 64.50 L 333.50 65.00 L 333.50 66.00 L 334.00 66.50 L 334.50 67.00 L 334.50 68.00 L 334.50 69.00 L 334.50 70.00 L 334.50 71.00 L 334.50 72.00 L 334.50 73.00 L 334.50 74.00 L 334.00 74.50 L 333.50 75.00 L 333.50 76.00 L 333.00 76.50 L 332.50 77.00 L 332.50 78.00 L 332.00 78.50 L 331.50 79.00 L 331.00 79.50 L 330.00 79.50 L 329.50 80.00 L 329.00 80.50 L 328.00 80.50 L 327.50 81.00 L 327.00 81.50 L 326.00 81.50 L 325.00 81.50 L 324.00 81.50 L 323.50 82.00 L 323.00 82.50 L 322.00 82.50 L 321.00 82.50 L 320.00 82.50 L 319.00 82.50 L 318.00 82.50 L 317.00 82.50 L 316.00 82.50 L 315.00 82.50 L 314.00 82.50 L 313.00 82.50 L 312.50 83.00 L 312.50 84.00 L 312.50 85.00 L 312.00 85.50 L 311.50 86.00 L 311.50 87.00 L 311.50 88.00 L 311.50 89.00 L 311.50 90.00 L 311.00 90.50 L 310.50 91.00 L 310.50 92.00 L 310.50 93.00 L 310.50 94.00 L 310.50 95.00 L 310.00 95.50 Z" fill="#5a7d5d"/>
<path d="M 398.00 95.50 L 397.00 95.50 L 396.00 95.50 L 395.00 95.50 L 394.00 95.50 L 393.00 95.50 L 392.50 95.00 L 392.50 94.00 L 393.00 93.50 L 393.50 93.00 L 393.50 92.00 L 393.50 91.00 L 393.50 90.00 L 393.50 89.00 L 394.00 88.50 L 394.50 88.00 L 394.50 87.00 L 394.50 86.00 L 394.50 85.00 L 394.50 84.00 L 395.00 83.50 L 395.50 83.00 L 395.50 82.00 L 395.50 81.00 L 395.50 80.00 L 396.00 79.50 L 396.50 79.00 L 396.50 78.00 L 396.50 77.00 L 396.50 76.00 L 396.50 75.00 L 397.00 74.50 L 397.50 74.00 L 397.50 73.00 L 397.50 72.00 L 397.50 71.00 L 397.50 70.00 L 398.00 69.50 L 398.50 69.00 L 398.50 68.00 L 398.50 67.00 L 398.50 66.00 L 398.50 65.00 L 399.00 64.50 L 399.50 64.00 L 399.50 63.00 L 399.50 62.00 L 400.00 61.50 L 401.00 61.50 L 402.00 61.50 L 403.00 61.50 L 404.00 61.50 L 405.00 61.50 L 405.50 62.00 L 405.50 63.00 L 405.50 64.00 L 405.00 64.50 L 404.50 65.00 L 404.50 66.00 L 404.50 67.00 L 404.50 68.00 L 404.00 68.50 L 403.50 69.00 L 403.50 70.00 L 403.50 71.00 L 403.50 72.00 L 403.50 73.00 L 403.00 73.50 L 402.50 74.00 L 402.50 75.00 L 402.50 76.00 L 402.50 77.00 L 402.50 78.00 L 402.00 78.50 L 401.50 79.00 L 401.50 80.00 L 401.50 81.00 L 401.50 82.00 L 401.50 83.00 L 401.00 83.50 L 400.50 84.00 L 400.50 85.00 L 400.50 86.00 L 400.50 87.00 L 400.50 88.00 L 400.00 88.50 L 399.50 89.00 L 399.50 90.00 L 399.50 91.00 L 399.50 92.00 L 399.50 93.00 L 399.00 93.50 L 398.50 94.00 L 398.50 95.00 L 398.00 95.50 Z" fill="#5a7d5d"/>
<path d="M 282.00 96.50 L 281.50 96.00 L 281.00 95.50 L 280.00 95.50 L 279.00 95.50 L 278.00 95.50 L 277.50 95.00 L 277.00 94.50 L 276.50 94.00 L 276.50 93.00 L 276.00 92.50 L 275.50 92.00 L 275.50 91.00 L 276.00 90.50 L 276.50 90.00 L 276.50 89.00 L 276.50 88.00 L 276.50 87.00 L 276.50 86.00 L 276.50 85.00 L 277.00 84.50 L 277.50 84.00 L 277.50 83.00 L 277.50 82.00 L 277.50 81.00 L 277.50 80.00 L 278.00 79.50 L 278.50 79.00 L 278.50 78.00 L 278.50 77.00 L 278.50 76.00 L 278.00 75.50 L 277.00 75.50 L 276.00 75.50 L 275.50 75.00 L 275.50 74.00 L 276.00 73.50 L 276.50 73.00 L 276.50 72.00 L 277.00 71.50 L 278.00 71.50 L 279.00 71.50 L 279.50 71.00 L 280.00 70.50 L 280.50 70.00 L 280.50 69.00 L 280.50 68.00 L 280.50 67.00 L 281.00 66.50 L 282.00 66.50 L 282.50 66.00 L 283.00 65.50 L 283.50 65.00 L 284.00 64.50 L 285.00 64.50 L 285.50 64.00 L 286.00 63.50 L 287.00 63.50 L 287.50 64.00 L 287.50 65.00 L 287.00 65.50 L 286.50 66.00 L 286.50 67.00 L 286.50 68.00 L 286.50 69.00 L 286.00 69.50 L 285.50 70.00 L 286.00 70.50 L 286.50 71.00 L 287.00 71.50 L 288.00 71.50 L 289.00 71.50 L 289.50 72.00 L 289.50 73.00 L 289.50 74.00 L 289.50 75.00 L 289.00 75.50 L 288.00 75.50 L 287.00 75.50 L 286.00 75.50 L 285.00 75.50 L 284.50 76.00 L 284.50 77.00 L 284.50 78.00 L 284.50 79.00 L 284.00 79.50 L 283.50 80.00 L 283.50 81.00 L 283.50 82.00 L 283.50 83.00 L 283.50 84.00 L 283.00 84.50 L 282.50 85.00 L 282.50 86.00 L 282.50 87.00 L 282.50 88.00 L 282.50 89.00 L 282.50 90.00 L 282.50 91.00 L 283.00 91.50 L 284.00 91.50 L 285.00 91.50 L 286.00 91.50 L 286.50 92.00 L 286.50 93.00 L 286.00 93.50 L 285.50 94.00 L 285.50 95.00 L 285.00 95.50 L 284.00 95.50 L 283.00 95.50 L 282.50 96.00 L 282.00 96.50 Z" fill="#5a7d5d"/>
<path d="M 321.50 77.00 L 322.00 76.50 L 323.00 76.50 L 324.00 76.50 L 325.00 76.50 L 325.50 76.00 L 326.00 75.50 L 326.50 75.00 L 327.00 74.50 L 327.50 74.00 L 327.50 73.00 L 328.00 72.50 L 328.50 72.00 L 328.50 71.00 L 328.50 70.00 L 328.50 69.00 L 328.00 68.50 L 327.50 68.00 L 327.00 67.50 L 326.50 67.00 L 326.00 66.50 L 325.00 66.50 L 324.00 66.50 L 323.00 66.50 L 322.00 66.50 L 321.00 66.50 L 320.00 66.50 L 319.00 66.50 L 318.00 66.50 L 317.00 66.50 L 316.00 66.50 L 315.50 67.00 L 315.50 68.00 L 315.50 69.00 L 315.50 70.00 L 315.50 71.00 L 315.00 71.50 L 314.50 72.00 L 314.50 73.00 L 314.50 74.00 L 314.50 75.00 L 314.00 75.50 L 313.50 76.00 L 314.00 76.50 L 314.50 77.00 L 315.00 77.50 L 316.00 77.50 L 317.00 77.50 L 318.00 77.50 L 319.00 77.50 L 320.00 77.50 L 321.00 77.50 L 321.50 77.00 Z" fill="#5a7d5d"/>
<path d="M 136.50 72.00 L 137.00 71.50 L 137.50 71.00 L 137.50 70.00 L 137.50 69.00 L 137.00 68.50 L 136.00 68.50 L 135.00 68.50 L 134.00 68.50 L 133.00 68.50 L 132.00 68.50 L 131.00 68.50 L 130.00 68.50 L 129.00 68.50 L 128.00 68.50 L 127.50 69.00 L 127.00 69.50 L 126.50 69.00 L 126.00 68.50 L 125.00 68.50 L 124.00 68.50 L 123.00 68.50 L 122.00 68.50 L 121.00 68.50 L 120.50 69.00 L 120.00 69.50 L 119.50 69.00 L 119.00 68.50 L 118.00 68.50 L 117.00 68.50 L 116.00 68.50 L 115.00 68.50 L 114.00 68.50 L 113.50 69.00 L 113.00 69.50 L 112.00 69.50 L 111.00 69.50 L 110.50 69.00 L 110.00 68.50 L 109.00 68.50 L 108.00 68.50 L 107.00 68.50 L 106.50 69.00 L 106.00 69.50 L 105.50 69.00 L 105.00 68.50 L 104.00 68.50 L 103.00 68.50 L 102.00 68.50 L 101.00 68.50 L 100.00 68.50 L 99.00 68.50 L 98.00 68.50 L 97.00 68.50 L 96.00 68.50 L 95.00 68.50 L 94.00 68.50 L 93.00 68.50 L 92.50 69.00 L 92.00 69.50 L 91.50 69.00 L 91.00 68.50 L 90.00 68.50 L 89.00 68.50 L 88.00 68.50 L 87.00 68.50 L 86.00 68.50 L 85.50 69.00 L 85.00 69.50 L 84.50 69.00 L 84.00 68.50 L 83.00 68.50 L 82.00 68.50 L 81.00 68.50 L 80.00 68.50 L 79.00 68.50 L 78.50 69.00 L 78.00 69.50 L 77.50 69.00 L 77.00 68.50 L 76.00 68.50 L 75.00 68.50 L 74.00 68.50 L 73.00 68.50 L 72.00 68.50 L 71.50 69.00 L 71.00 69.50 L 70.50 69.00 L 70.00 68.50 L 69.00 68.50 L 68.00 68.50 L 67.00 68.50 L 66.00 68.50 L 65.00 68.50 L 64.50 69.00 L 64.00 69.50 L 63.50 69.00 L 63.00 68.50 L 62.00 68.50 L 61.00 68.50 L 60.00 68.50 L 59.00 68.50 L 58.00 68.50 L 57.50 69.00 L 57.00 69.50 L 56.50 69.00 L 56.00 68.50 L 55.00 68.50 L 54.00 68.50 L 53.00 68.50 L 52.00 68.50 L 51.00 68.50 L 50.50 69.00 L 50.00 69.50 L 49.50 69.00 L 49.00 68.50 L 48.00 68.50 L 47.00 68.50 L 46.00 68.50 L 45.00 68.50 L 44.00 68.50 L 43.00 68.50 L 42.00 68.50 L 41.00 68.50 L 40.50 69.00 L 40.00 69.50 L 39.50 70.00 L 40.00 70.50 L 40.50 71.00 L 40.50 72.00 L 41.00 72.50 L 42.00 72.50 L 43.00 72.50 L 44.00 72.50 L 45.00 72.50 L 45.50 72.00 L 46.00 71.50 L 47.00 71.50 L 47.50 72.00 L 48.00 72.50 L 49.00 72.50 L 50.00 72.50 L 51.00 72.50 L 52.00 72.50 L 52.50 72.00 L 53.00 71.50 L 54.00 71.50 L 54.50 72.00 L 55.00 72.50 L 56.00 72.50 L 57.00 72.50 L 58.00 72.50 L 59.00 72.50 L 59.50 72.00 L 60.00 71.50 L 61.00 71.50 L 61.50 72.00 L 62.00 72.50 L 63.00 72.50 L 64.00 72.50 L 65.00 72.50 L 66.00 72.50 L 66.50 72.00 L 67.00 71.50 L 68.00 71.50 L 68.50 72.00 L 69.00 72.50 L 70.00 72.50 L 71.00 72.50 L 72.00 72.50 L 73.00 72.50 L 73.50 72.00 L 74.00 71.50 L 75.00 71.50 L 75.50 72.00 L 76.00 72.50 L 77.00 72.50 L 78.00 72.50 L 79.00 72.50 L 80.00 72.50 L 80.50 72.00 L 81.00 71.50 L 82.00 71.50 L 82.50 72.00 L 83.00 72.50 L 84.00 72.50 L 85.00 72.50 L 86.00 72.50 L 87.00 72.50 L 87.50 72.00 L 88.00 71.50 L 89.00 71.50 L 89.50 72.00 L 90.00 72.50 L 91.00 72.50 L 92.00 72.50 L 93.00 72.50 L 94.00 72.50 L 94.50 72.00 L 95.00 71.50 L 96.00 71.50 L 96.50 72.00 L 97.00 72.50 L 98.00 72.50 L 99.00 72.50 L 100.00 72.50 L 101.00 72.50 L 101.50 72.00 L 102.00 71.50 L 103.00 71.50 L 103.50 72.00 L 104.00 72.50 L 105.00 72.50 L 106.00 72.50 L 107.00 72.50 L 108.00 72.50 L 108.50 72.00 L 109.00 71.50 L 110.00 71.50 L 110.50 72.00 L 111.00 72.50 L 112.00 72.50 L 113.00 72.50 L 114.00 72.50 L 115.00 72.50 L 115.50 72.00 L 116.00 71.50 L 117.00 71.50 L 117.50 72.00 L 118.00 72.50 L 119.00 72.50 L 120.00 72.50 L 121.00 72.50 L 122.00 72.50 L 122.50 72.00 L 123.00 71.50 L 124.00 71.50 L 124.50 72.00 L 125.00 72.50 L 126.00 72.50 L 127.00 72.50 L 128.00 72.50 L 129.00 72.50 L 129.50 72.00 L 130.00 71.50 L 131.00 71.50 L 131.50 72.00 L 132.00 72.50 L 133.00 72.50 L 134.00 72.50 L 135.00 72.50 L 136.00 72.50 L 136.50 72.00 Z" fill="#5a7d5d"/>
<path d="M 211.00 96.50 L 210.00 96.50 L 209.50 96.00 L 209.00 95.50 L 208.00 95.50 L 207.00 95.50 L 206.50 95.00 L 206.00 94.50 L 205.50 94.00 L 205.00 93.50 L 204.50 93.00 L 204.50 92.00 L 204.50 91.00 L 204.50 90.00 L 204.50 89.00 L 204.50 88.00 L 204.50 87.00 L 204.50 86.00 L 204.50 85.00 L 205.00 84.50 L 205.50 84.00 L 206.00 83.50 L 206.50 83.00 L 207.00 82.50 L 208.00 82.50 L 209.00 82.50 L 209.50 82.00 L 210.00 81.50 L 211.00 81.50 L 212.00 81.50 L 213.00 81.50 L 214.00 81.50 L 215.00 81.50 L 216.00 81.50 L 216.50 81.00 L 217.00 80.50 L 218.00 80.50 L 219.00 80.50 L 220.00 80.50 L 220.50 80.00 L 220.50 79.00 L 221.00 78.50 L 221.50 78.00 L 221.00 77.50 L 220.50 77.00 L 220.50 76.00 L 220.00 75.50 L 219.50 75.00 L 219.00 74.50 L 218.00 74.50 L 217.00 74.50 L 216.00 74.50 L 215.50 75.00 L 215.00 75.50 L 214.00 75.50 L 213.50 76.00 L 213.00 76.50 L 212.50 77.00 L 212.00 77.50 L 211.00 77.50 L 210.00 77.50 L 209.00 77.50 L 208.00 77.50 L 207.50 77.00 L 207.50 76.00 L 207.50 75.00 L 208.00 74.50 L 208.50 74.00 L 209.00 73.50 L 209.50 73.00 L 210.00 72.50 L 211.00 72.50 L 211.50 72.00 L 212.00 71.50 L 213.00 71.50 L 213.50 71.00 L 214.00 70.50 L 215.00 70.50 L 216.00 70.50 L 217.00 70.50 L 218.00 70.50 L 219.00 70.50 L 220.00 70.50 L 221.00 70.50 L 221.50 71.00 L 222.00 71.50 L 223.00 71.50 L 224.00 71.50 L 224.50 72.00 L 225.00 72.50 L 225.50 73.00 L 226.00 73.50 L 226.50 74.00 L 226.50 75.00 L 226.50 76.00 L 226.50 77.00 L 226.50 78.00 L 226.50 79.00 L 226.50 80.00 L 226.50 81.00 L 226.50 82.00 L 226.00 82.50 L 225.50 83.00 L 225.50 84.00 L 225.50 85.00 L 225.50 86.00 L 225.00 86.50 L 224.50 87.00 L 224.50 88.00 L 224.50 89.00 L 224.50 90.00 L 224.50 91.00 L 224.50 92.00 L 224.50 93.00 L 224.50 94.00 L 224.50 95.00 L 224.00 95.50 L 223.00 95.50 L 222.00 95.50 L 221.00 95.50 L 220.00 95.50 L 219.00 95.50 L 218.50 95.00 L 218.50 94.00 L 218.00 93.50 L 217.00 93.50 L 216.50 94.00 L 216.00 94.50 L 215.00 94.50 L 214.50 95.00 L 214.00 95.50 L 213.00 95.50 L 212.00 95.50 L 211.50 96.00 L 211.00 96.50 Z" fill="#5a7d5d"/>
<path d="M 266.00 95.50 L 265.00 95.50 L 264.00 95.50 L 263.00 95.50 L 262.00 95.50 L 261.00 95.50 L 260.50 95.00 L 260.50 94.00 L 261.00 93.50 L 261.50 93.00 L 261.50 92.00 L 261.50 91.00 L 261.50 90.00 L 261.50 89.00 L 262.00 88.50 L 262.50 88.00 L 262.50 87.00 L 262.50 86.00 L 262.50 85.00 L 262.50 84.00 L 263.00 83.50 L 263.50 83.00 L 263.50 82.00 L 263.50 81.00 L 263.50 80.00 L 263.50 79.00 L 263.50 78.00 L 263.50 77.00 L 263.50 76.00 L 263.00 75.50 L 262.50 75.00 L 262.00 74.50 L 261.00 74.50 L 260.00 74.50 L 259.00 74.50 L 258.50 75.00 L 258.00 75.50 L 257.50 76.00 L 257.00 76.50 L 256.50 77.00 L 256.00 77.50 L 255.50 78.00 L 255.00 78.50 L 254.50 79.00 L 254.00 79.50 L 253.50 80.00 L 253.50 81.00 L 253.50 82.00 L 253.50 83.00 L 253.00 83.50 L 252.50 84.00 L 252.50 85.00 L 252.50 86.00 L 252.50 87.00 L 252.00 87.50 L 251.50 88.00 L 251.50 89.00 L 251.50 90.00 L 251.50 91.00 L 251.50 92.00 L 251.00 92.50 L 250.50 93.00 L 250.50 94.00 L 250.50 95.00 L 250.00 95.50 L 249.00 95.50 L 248.00 95.50 L 247.00 95.50 L 246.00 95.50 L 245.00 95.50 L 244.50 95.00 L 244.50 94.00 L 244.50 93.00 L 245.00 92.50 L 245.50 92.00 L 245.50 91.00 L 245.50 90.00 L 245.50 89.00 L 245.50 88.00 L 246.00 87.50 L 246.50 87.00 L 246.50 86.00 L 246.50 85.00 L 246.50 84.00 L 246.50 83.00 L 247.00 82.50 L 247.50 82.00 L 247.50 81.00 L 247.50 80.00 L 247.50 79.00 L 248.00 78.50 L 248.50 78.00 L 248.50 77.00 L 248.50 76.00 L 248.50 75.00 L 248.50 74.00 L 249.00 73.50 L 249.50 73.00 L 249.50 72.00 L 250.00 71.50 L 251.00 71.50 L 252.00 71.50 L 253.00 71.50 L 254.00 71.50 L 254.50 72.00 L 254.50 73.00 L 254.50 74.00 L 255.00 74.50 L 255.50 74.00 L 256.00 73.50 L 256.50 73.00 L 257.00 72.50 L 258.00 72.50 L 258.50 72.00 L 259.00 71.50 L 260.00 71.50 L 260.50 71.00 L 261.00 70.50 L 262.00 70.50 L 263.00 70.50 L 264.00 70.50 L 265.00 70.50 L 266.00 70.50 L 266.50 71.00 L 267.00 71.50 L 268.00 71.50 L 268.50 72.00 L 269.00 72.50 L 269.50 73.00 L 269.50 74.00 L 269.50 75.00 L 270.00 75.50 L 270.50 76.00 L 270.50 77.00 L 270.50 78.00 L 270.00 78.50 L 269.50 79.00 L 269.50 80.00 L 269.50 81.00 L 269.50 82.00 L 269.50 83.00 L 269.00 83.50 L 268.50 84.00 L 268.50 85.00 L 268.50 86.00 L 268.50 87.00 L 268.50 88.00 L 268.00 88.50 L 267.50 89.00 L 267.50 90.00 L 267.50 91.00 L 267.50 92.00 L 267.00 92.50 L 266.50 93.00 L 266.50 94.00 L 266.50 95.00 L 266.00 95.50 Z" fill="#5a7d5d"/>
<path d="M 343.00 96.50 L 342.00 96.50 L 341.50 96.00 L 341.00 95.50 L 340.00 95.50 L 339.00 95.50 L 338.50 95.00 L 338.00 94.50 L 337.50 94.00 L 337.50 93.00 L 337.00 92.50 L 336.50 92.00 L 336.50 91.00 L 336.50 90.00 L 336.50 89.00 L 336.50 88.00 L 336.50 87.00 L 336.50 86.00 L 337.00 85.50 L 337.50 85.00 L 337.50 84.00 L 338.00 83.50 L 339.00 83.50 L 339.50 83.00 L 340.00 82.50 L 341.00 82.50 L 341.50 82.00 L 342.00 81.50 L 343.00 81.50 L 344.00 81.50 L 345.00 81.50 L 346.00 81.50 L 347.00 81.50 L 348.00 81.50 L 348.50 81.00 L 349.00 80.50 L 350.00 80.50 L 351.00 80.50 L 352.00 80.50 L 352.50 80.00 L 352.50 79.00 L 353.00 78.50 L 353.50 78.00 L 353.50 77.00 L 353.00 76.50 L 352.50 76.00 L 352.00 75.50 L 351.50 75.00 L 351.00 74.50 L 350.00 74.50 L 349.00 74.50 L 348.00 74.50 L 347.50 75.00 L 347.00 75.50 L 346.00 75.50 L 345.50 76.00 L 345.00 76.50 L 344.50 77.00 L 344.00 77.50 L 343.00 77.50 L 342.00 77.50 L 341.00 77.50 L 340.00 77.50 L 339.50 77.00 L 339.50 76.00 L 339.50 75.00 L 340.00 74.50 L 340.50 74.00 L 341.00 73.50 L 341.50 73.00 L 342.00 72.50 L 343.00 72.50 L 343.50 72.00 L 344.00 71.50 L 345.00 71.50 L 346.00 71.50 L 346.50 71.00 L 347.00 70.50 L 348.00 70.50 L 349.00 70.50 L 350.00 70.50 L 351.00 70.50 L 352.00 70.50 L 353.00 70.50 L 353.50 71.00 L 354.00 71.50 L 355.00 71.50 L 356.00 71.50 L 356.50 72.00 L 357.00 72.50 L 357.50 73.00 L 358.00 73.50 L 358.50 74.00 L 358.50 75.00 L 358.50 76.00 L 358.50 77.00 L 358.50 78.00 L 358.50 79.00 L 358.50 80.00 L 358.50 81.00 L 358.50 82.00 L 358.00 82.50 L 357.50 83.00 L 357.50 84.00 L 357.50 85.00 L 357.50 86.00 L 357.50 87.00 L 357.00 87.50 L 356.50 88.00 L 356.50 89.00 L 356.50 90.00 L 356.50 91.00 L 356.50 92.00 L 356.50 93.00 L 356.50 94.00 L 356.50 95.00 L 356.00 95.50 L 355.00 95.50 L 354.00 95.50 L 353.00 95.50 L 352.00 95.50 L 351.00 95.50 L 350.50 95.00 L 350.50 94.00 L 350.00 93.50 L 349.00 93.50 L 348.50 94.00 L 348.00 94.50 L 347.50 95.00 L 347.00 95.50 L 346.00 95.50 L 345.00 95.50 L 344.00 95.50 L 343.50 96.00 L 343.00 96.50 Z" fill="#5a7d5d"/>
<path d="M 236.00 95.50 L 235.00 95.50 L 234.00 95.50 L 233.00 95.50 L 232.00 95.50 L 231.00 95.50 L 230.50 95.00 L 231.00 94.50 L 231.50 94.00 L 231.50 93.00 L 231.50 92.00 L 231.50 91.00 L 231.50 90.00 L 232.00 89.50 L 232.50 89.00 L 232.50 88.00 L 232.50 87.00 L 232.50 86.00 L 232.50 85.00 L 233.00 84.50 L 233.50 84.00 L 233.50 83.00 L 233.50 82.00 L 233.50 81.00 L 234.00 80.50 L 234.50 80.00 L 234.50 79.00 L 234.50 78.00 L 234.50 77.00 L 234.50 76.00 L 235.00 75.50 L 235.50 75.00 L 235.50 74.00 L 235.50 73.00 L 235.50 72.00 L 236.00 71.50 L 237.00 71.50 L 238.00 71.50 L 239.00 71.50 L 240.00 71.50 L 241.00 71.50 L 241.50 72.00 L 241.50 73.00 L 241.50 74.00 L 241.00 74.50 L 240.50 75.00 L 240.50 76.00 L 240.50 77.00 L 240.50 78.00 L 240.50 79.00 L 240.00 79.50 L 239.50 80.00 L 239.50 81.00 L 239.50 82.00 L 239.50 83.00 L 239.50 84.00 L 239.00 84.50 L 238.50 85.00 L 238.50 86.00 L 238.50 87.00 L 238.50 88.00 L 238.50 89.00 L 238.00 89.50 L 237.50 90.00 L 237.50 91.00 L 237.50 92.00 L 237.50 93.00 L 237.50 94.00 L 237.00 94.50 L 236.50 95.00 L 236.00 95.50 Z" fill="#5a7d5d"/>
<path d="M 371.00 96.50 L 370.00 96.50 L 369.50 96.00 L 369.00 95.50 L 368.00 95.50 L 367.00 95.50 L 366.50 95.00 L 366.00 94.50 L 365.50 94.00 L 365.00 93.50 L 364.50 93.00 L 364.50 92.00 L 364.50 91.00 L 364.50 90.00 L 364.50 89.00 L 364.50 88.00 L 364.50 87.00 L 364.50 86.00 L 365.00 85.50 L 365.50 85.00 L 365.50 84.00 L 365.50 83.00 L 365.50 82.00 L 365.50 81.00 L 366.00 80.50 L 366.50 80.00 L 366.50 79.00 L 366.50 78.00 L 366.50 77.00 L 366.50 76.00 L 367.00 75.50 L 367.50 75.00 L 367.50 74.00 L 367.50 73.00 L 367.50 72.00 L 368.00 71.50 L 369.00 71.50 L 370.00 71.50 L 371.00 71.50 L 372.00 71.50 L 373.00 71.50 L 373.50 72.00 L 373.50 73.00 L 373.50 74.00 L 373.50 75.00 L 373.00 75.50 L 372.50 76.00 L 372.50 77.00 L 372.50 78.00 L 372.50 79.00 L 372.50 80.00 L 372.00 80.50 L 371.50 81.00 L 371.50 82.00 L 371.50 83.00 L 371.50 84.00 L 371.50 85.00 L 371.00 85.50 L 370.50 86.00 L 370.50 87.00 L 370.50 88.00 L 370.50 89.00 L 370.50 90.00 L 371.00 90.50 L 371.50 91.00 L 372.00 91.50 L 373.00 91.50 L 373.50 92.00 L 374.00 92.50 L 374.50 92.00 L 375.00 91.50 L 376.00 91.50 L 376.50 91.00 L 377.00 90.50 L 377.50 90.00 L 378.00 89.50 L 378.50 89.00 L 379.00 88.50 L 379.50 88.00 L 380.00 87.50 L 380.50 87.00 L 380.50 86.00 L 380.50 85.00 L 381.00 84.50 L 381.50 84.00 L 381.50 83.00 L 381.50 82.00 L 382.00 81.50 L 382.50 81.00 L 382.50 80.00 L 382.50 79.00 L 382.50 78.00 L 382.50 77.00 L 383.00 76.50 L 383.50 76.00 L 383.50 75.00 L 383.50 74.00 L 383.50 73.00 L 383.50 72.00 L 384.00 71.50 L 385.00 71.50 L 386.00 71.50 L 387.00 71.50 L 388.00 71.50 L 389.00 71.50 L 389.50 72.00 L 389.50 73.00 L 389.50 74.00 L 389.50 75.00 L 389.50 76.00 L 389.00 76.50 L 388.50 77.00 L 388.50 78.00 L 388.50 79.00 L 388.50 80.00 L 388.00 80.50 L 387.50 81.00 L 387.50 82.00 L 387.50 83.00 L 387.50 84.00 L 387.50 85.00 L 387.00 85.50 L 386.50 86.00 L 386.50 87.00 L 386.50 88.00 L 386.50 89.00 L 386.50 90.00 L 386.00 90.50 L 385.50 91.00 L 385.50 92.00 L 385.50 93.00 L 385.50 94.00 L 385.50 95.00 L 385.00 95.50 L 384.00 95.50 L 383.00 95.50 L 382.00 95.50 L 381.00 95.50 L 380.00 95.50 L 379.50 95.00 L 379.50 94.00 L 379.50 93.00 L 379.00 92.50 L 378.50 93.00 L 378.00 93.50 L 377.50 94.00 L 377.00 94.50 L 376.00 94.50 L 375.50 95.00 L 375.00 95.50 L 374.00 95.50 L 373.00 95.50 L 372.00 95.50 L 371.50 96.00 L 371.00 96.50 Z" fill="#5a7d5d"/>
<path d="M 134.50 79.00 L 135.00 78.50 L 135.50 78.00 L 135.50 77.00 L 136.00 76.50 L 136.50 76.00 L 136.00 75.50 L 135.50 75.00 L 135.00 74.50 L 134.50 75.00 L 134.00 75.50 L 133.00 75.50 L 132.50 75.00 L 132.00 74.50 L 131.00 74.50 L 130.00 74.50 L 129.00 74.50 L 128.50 75.00 L 128.00 75.50 L 127.00 75.50 L 126.00 75.50 L 125.50 75.00 L 125.00 74.50 L 124.00 74.50 L 123.00 74.50 L 122.00 74.50 L 121.50 75.00 L 121.00 75.50 L 120.00 75.50 L 119.00 75.50 L 118.50 75.00 L 118.00 74.50 L 117.00 74.50 L 116.00 74.50 L 115.00 74.50 L 114.50 75.00 L 114.00 75.50 L 113.00 75.50 L 112.00 75.50 L 111.50 75.00 L 111.00 74.50 L 110.00 74.50 L 109.00 74.50 L 108.00 74.50 L 107.50 75.00 L 107.00 75.50 L 106.00 75.50 L 105.00 75.50 L 104.50 75.00 L 104.00 74.50 L 103.00 74.50 L 102.00 74.50 L 101.00 74.50 L 100.50 75.00 L 100.00 75.50 L 99.00 75.50 L 98.00 75.50 L 97.50 75.00 L 97.00 74.50 L 96.00 74.50 L 95.00 74.50 L 94.00 74.50 L 93.50 75.00 L 93.00 75.50 L 92.00 75.50 L 91.00 75.50 L 90.50 75.00 L 90.00 74.50 L 89.00 74.50 L 88.00 74.50 L 87.00 74.50 L 86.50 75.00 L 86.00 75.50 L 85.00 75.50 L 84.00 75.50 L 83.50 75.00 L 83.00 74.50 L 82.00 74.50 L 81.00 74.50 L 80.00 74.50 L 79.50 75.00 L 79.00 75.50 L 78.00 75.50 L 77.00 75.50 L 76.50 75.00 L 76.00 74.50 L 75.00 74.50 L 74.00 74.50 L 73.00 74.50 L 72.50 75.00 L 72.00 75.50 L 71.00 75.50 L 70.00 75.50 L 69.50 75.00 L 69.00 74.50 L 68.00 74.50 L 67.00 74.50 L 66.00 74.50 L 65.50 75.00 L 65.00 75.50 L 64.00 75.50 L 63.00 75.50 L 62.50 75.00 L 62.00 74.50 L 61.00 74.50 L 60.00 74.50 L 59.00 74.50 L 58.50 75.00 L 58.00 75.50 L 57.00 75.50 L 56.00 75.50 L 55.50 75.00 L 55.00 74.50 L 54.00 74.50 L 53.00 74.50 L 52.00 74.50 L 51.50 75.00 L 51.00 75.50 L 50.00 75.50 L 49.00 75.50 L 48.50 75.00 L 48.00 74.50 L 47.00 74.50 L 46.00 74.50 L 45.00 74.50 L 44.50 75.00 L 44.00 75.50 L 43.00 75.50 L 42.00 75.50 L 41.50 76.00 L 41.50 77.00 L 41.50 78.00 L 42.00 78.50 L 42.50 79.00 L 43.00 79.50 L 44.00 79.50 L 44.50 79.00 L 45.00 78.50 L 46.00 78.50 L 47.00 78.50 L 48.00 78.50 L 48.50 79.00 L 49.00 79.50 L 50.00 79.50 L 50.50 79.00 L 51.00 78.50 L 52.00 78.50 L 53.00 78.50 L 54.00 78.50 L 55.00 78.50 L 55.50 79.00 L 56.00 79.50 L 57.00 79.50 L 57.50 79.00 L 58.00 78.50 L 59.00 78.50 L 60.00 78.50 L 61.00 78.50 L 62.00 78.50 L 62.50 79.00 L 63.00 79.50 L 64.00 79.50 L 64.50 79.00 L 65.00 78.50 L 66.00 78.50 L 67.00 78.50 L 68.00 78.50 L 69.00 78.50 L 69.50 79.00 L 70.00 79.50 L 71.00 79.50 L 71.50 79.00 L 72.00 78.50 L 73.00 78.50 L 74.00 78.50 L 75.00 78.50 L 76.00 78.50 L 76.50 79.00 L 77.00 79.50 L 78.00 79.50 L 78.50 79.00 L 79.00 78.50 L 80.00 78.50 L 81.00 78.50 L 82.00 78.50 L 83.00 78.50 L 83.50 79.00 L 84.00 79.50 L 85.00 79.50 L 85.50 79.00 L 86.00 78.50 L 87.00 78.50 L 88.00 78.50 L 89.00 78.50 L 90.00 78.50 L 90.50 79.00 L 91.00 79.50 L 92.00 79.50 L 92.50 79.00 L 93.00 78.50 L 94.00 78.50 L 95.00 78.50 L 96.00 78.50 L 97.00 78.50 L 97.50 79.00 L 98.00 79.50 L 99.00 79.50 L 99.50 79.00 L 100.00 78.50 L 101.00 78.50 L 102.00 78.50 L 103.00 78.50 L 104.00 78.50 L 104.50 79.00 L 105.00 79.50 L 106.00 79.50 L 106.50 79.00 L 107.00 78.50 L 108.00 78.50 L 109.00 78.50 L 110.00 78.50 L 111.00 78.50 L 111.50 79.00 L 112.00 79.50 L 113.00 79.50 L 113.50 79.00 L 114.00 78.50 L 115.00 78.50 L 116.00 78.50 L 117.00 78.50 L 118.00 78.50 L 118.50 79.00 L 119.00 79.50 L 120.00 79.50 L 120.50 79.00 L 121.00 78.50 L 122.00 78.50 L 123.00 78.50 L 124.00 78.50 L 125.00 78.50 L 125.50 79.00 L 126.00 79.50 L 127.00 79.50 L 127.50 79.00 L 128.00 78.50 L 129.00 78.50 L 130.00 78.50 L 131.00 78.50 L 132.00 78.50 L 132.50 79.00 L 133.00 79.50 L 134.00 79.50 L 134.50 79.00 Z" fill="#5a7d5d"/>
<path d="M 133.50 84.00 L 133.50 83.00 L 134.00 82.50 L 134.50 82.00 L 134.00 81.50 L 133.00 81.50 L 132.00 81.50 L 131.50 81.00 L 131.00 80.50 L 130.00 80.50 L 129.50 81.00 L 129.00 81.50 L 128.00 81.50 L 127.00 81.50 L 126.00 81.50 L 125.00 81.50 L 124.50 81.00 L 124.00 80.50 L 123.00 80.50 L 122.50 81.00 L 122.00 81.50 L 121.00 81.50 L 120.00 81.50 L 119.00 81.50 L 118.00 81.50 L 117.50 81.00 L 117.00 80.50 L 116.00 80.50 L 115.50 81.00 L 115.00 81.50 L 114.00 81.50 L 113.00 81.50 L 112.00 81.50 L 111.00 81.50 L 110.50 81.00 L 110.00 80.50 L 109.00 80.50 L 108.50 81.00 L 108.00 81.50 L 107.00 81.50 L 106.00 81.50 L 105.00 81.50 L 104.00 81.50 L 103.50 81.00 L 103.00 80.50 L 102.00 80.50 L 101.50 81.00 L 101.00 81.50 L 100.00 81.50 L 99.00 81.50 L 98.00 81.50 L 97.00 81.50 L 96.50 81.00 L 96.00 80.50 L 95.00 80.50 L 94.50 81.00 L 94.00 81.50 L 93.00 81.50 L 92.00 81.50 L 91.00 81.50 L 90.00 81.50 L 89.50 81.00 L 89.00 80.50 L 88.00 80.50 L 87.50 81.00 L 87.00 81.50 L 86.00 81.50 L 85.00 81.50 L 84.00 81.50 L 83.00 81.50 L 82.50 81.00 L 82.00 80.50 L 81.00 80.50 L 80.50 81.00 L 80.00 81.50 L 79.00 81.50 L 78.00 81.50 L 77.00 81.50 L 76.00 81.50 L 75.50 81.00 L 75.00 80.50 L 74.00 80.50 L 73.50 81.00 L 73.00 81.50 L 72.00 81.50 L 71.00 81.50 L 70.00 81.50 L 69.00 81.50 L 68.50 81.00 L 68.00 80.50 L 67.00 80.50 L 66.50 81.00 L 66.00 81.50 L 65.00 81.50 L 64.00 81.50 L 63.00 81.50 L 62.00 81.50 L 61.50 81.00 L 61.00 80.50 L 60.00 80.50 L 59.50 81.00 L 59.00 81.50 L 58.00 81.50 L 57.00 81.50 L 56.00 81.50 L 55.00 81.50 L 54.50 81.00 L 54.00 80.50 L 53.00 80.50 L 52.50 81.00 L 52.00 81.50 L 51.00 81.50 L 50.00 81.50 L 49.00 81.50 L 48.00 81.50 L 47.50 81.00 L 47.00 80.50 L 46.00 80.50 L 45.50 81.00 L 45.00 81.50 L 44.00 81.50 L 43.50 82.00 L 43.50 83.00 L 43.50 84.00 L 44.00 84.50 L 45.00 84.50 L 45.50 84.00 L 46.00 83.50 L 47.00 83.50 L 47.50 84.00 L 48.00 84.50 L 49.00 84.50 L 50.00 84.50 L 51.00 84.50 L 52.00 84.50 L 52.50 84.00 L 53.00 83.50 L 54.00 83.50 L 54.50 84.00 L 55.00 84.50 L 56.00 84.50 L 57.00 84.50 L 58.00 84.50 L 59.00 84.50 L 59.50 84.00 L 60.00 83.50 L 61.00 83.50 L 61.50 84.00 L 62.00 84.50 L 63.00 84.50 L 64.00 84.50 L 65.00 84.50 L 66.00 84.50 L 66.50 84.00 L 67.00 83.50 L 68.00 83.50 L 68.50 84.00 L 69.00 84.50 L 70.00 84.50 L 71.00 84.50 L 72.00 84.50 L 73.00 84.50 L 73.50 84.00 L 74.00 83.50 L 75.00 83.50 L 75.50 84.00 L 76.00 84.50 L 77.00 84.50 L 78.00 84.50 L 79.00 84.50 L 80.00 84.50 L 80.50 84.00 L 81.00 83.50 L 82.00 83.50 L 82.50 84.00 L 83.00 84.50 L 84.00 84.50 L 85.00 84.50 L 86.00 84.50 L 87.00 84.50 L 87.50 84.00 L 88.00 83.50 L 89.00 83.50 L 89.50 84.00 L 90.00 84.50 L 91.00 84.50 L 92.00 84.50 L 93.00 84.50 L 94.00 84.50 L 94.50 84.00 L 95.00 83.50 L 96.00 83.50 L 96.50 84.00 L 97.00 84.50 L 98.00 84.50 L 99.00 84.50 L 100.00 84.50 L 101.00 84.50 L 101.50 84.00 L 102.00 83.50 L 103.00 83.50 L 103.50 84.00 L 104.00 84.50 L 105.00 84.50 L 106.00 84.50 L 107.00 84.50 L 108.00 84.50 L 108.50 84.00 L 109.00 83.50 L 110.00 83.50 L 110.50 84.00 L 111.00 84.50 L 112.00 84.50 L 113.00 84.50 L 114.00 84.50 L 115.00 84.50 L 115.50 84.00 L 116.00 83.50 L 117.00 83.50 L 117.50 84.00 L 118.00 84.50 L 119.00 84.50 L 120.00 84.50 L 121.00 84.50 L 122.00 84.50 L 122.50 84.00 L 123.00 83.50 L 124.00 83.50 L 124.50 84.00 L 125.00 84.50 L 126.00 84.50 L 127.00 84.50 L 128.00 84.50 L 129.00 84.50 L 129.50 84.00 L 130.00 83.50 L 130.50 84.00 L 131.00 84.50 L 132.00 84.50 L 133.00 84.50 L 133.50 84.00 Z" fill="#5a7d5d"/>
<path d="M 127.50 91.00 L 128.00 90.50 L 129.00 90.50 L 129.50 90.00 L 130.00 89.50 L 130.50 89.00 L 131.00 88.50 L 131.50 88.00 L 131.50 87.00 L 131.00 86.50 L 130.00 86.50 L 129.00 86.50 L 128.50 87.00 L 128.00 87.50 L 127.00 87.50 L 126.00 87.50 L 125.00 87.50 L 124.50 87.00 L 124.00 86.50 L 123.00 86.50 L 122.00 86.50 L 121.50 87.00 L 121.00 87.50 L 120.00 87.50 L 119.00 87.50 L 118.00 87.50 L 117.50 87.00 L 117.00 86.50 L 116.00 86.50 L 115.00 86.50 L 114.50 87.00 L 114.00 87.50 L 113.00 87.50 L 112.00 87.50 L 111.00 87.50 L 110.50 87.00 L 110.00 86.50 L 109.00 86.50 L 108.00 86.50 L 107.50 87.00 L 107.00 87.50 L 106.00 87.50 L 105.00 87.50 L 104.00 87.50 L 103.50 87.00 L 103.00 86.50 L 102.00 86.50 L 101.00 86.50 L 100.50 87.00 L 100.00 87.50 L 99.00 87.50 L 98.00 87.50 L 97.00 87.50 L 96.50 87.00 L 96.00 86.50 L 95.00 86.50 L 94.00 86.50 L 93.50 87.00 L 93.00 87.50 L 92.00 87.50 L 91.00 87.50 L 90.00 87.50 L 89.50 87.00 L 89.00 86.50 L 88.00 86.50 L 87.00 86.50 L 86.50 87.00 L 86.00 87.50 L 85.00 87.50 L 84.00 87.50 L 83.00 87.50 L 82.50 87.00 L 82.00 86.50 L 81.00 86.50 L 80.00 86.50 L 79.50 87.00 L 79.00 87.50 L 78.00 87.50 L 77.00 87.50 L 76.00 87.50 L 75.50 87.00 L 75.00 86.50 L 74.00 86.50 L 73.00 86.50 L 72.50 87.00 L 72.00 87.50 L 71.00 87.50 L 70.00 87.50 L 69.00 87.50 L 68.50 87.00 L 68.00 86.50 L 67.00 86.50 L 66.00 86.50 L 65.50 87.00 L 65.00 87.50 L 64.00 87.50 L 63.00 87.50 L 62.00 87.50 L 61.50 87.00 L 61.00 86.50 L 60.00 86.50 L 59.00 86.50 L 58.50 87.00 L 58.00 87.50 L 57.00 87.50 L 56.00 87.50 L 55.00 87.50 L 54.50 87.00 L 54.00 86.50 L 53.00 86.50 L 52.00 86.50 L 51.50 87.00 L 51.00 87.50 L 50.00 87.50 L 49.00 87.50 L 48.00 87.50 L 47.50 87.00 L 47.00 86.50 L 46.00 86.50 L 45.50 87.00 L 46.00 87.50 L 46.50 88.00 L 46.50 89.00 L 47.00 89.50 L 47.50 90.00 L 48.00 90.50 L 49.00 90.50 L 49.50 91.00 L 50.00 91.50 L 50.50 91.00 L 51.00 90.50 L 52.00 90.50 L 52.50 90.00 L 53.00 89.50 L 53.50 90.00 L 54.00 90.50 L 55.00 90.50 L 56.00 90.50 L 56.50 91.00 L 57.00 91.50 L 57.50 91.00 L 58.00 90.50 L 59.00 90.50 L 59.50 90.00 L 60.00 89.50 L 60.50 90.00 L 61.00 90.50 L 62.00 90.50 L 63.00 90.50 L 63.50 91.00 L 64.00 91.50 L 64.50 91.00 L 65.00 90.50 L 66.00 90.50 L 66.50 90.00 L 67.00 89.50 L 67.50 90.00 L 68.00 90.50 L 69.00 90.50 L 70.00 90.50 L 70.50 91.00 L 71.00 91.50 L 71.50 91.00 L 72.00 90.50 L 73.00 90.50 L 73.50 90.00 L 74.00 89.50 L 74.50 90.00 L 75.00 90.50 L 76.00 90.50 L 77.00 90.50 L 77.50 91.00 L 78.00 91.50 L 78.50 91.00 L 79.00 90.50 L 80.00 90.50 L 80.50 90.00 L 81.00 89.50 L 81.50 90.00 L 82.00 90.50 L 83.00 90.50 L 84.00 90.50 L 84.50 91.00 L 85.00 91.50 L 85.50 91.00 L 86.00 90.50 L 87.00 90.50 L 87.50 90.00 L 88.00 89.50 L 88.50 90.00 L 89.00 90.50 L 90.00 90.50 L 91.00 90.50 L 91.50 91.00 L 92.00 91.50 L 92.50 91.00 L 93.00 90.50 L 94.00 90.50 L 94.50 90.00 L 95.00 89.50 L 95.50 90.00 L 96.00 90.50 L 97.00 90.50 L 98.00 90.50 L 98.50 91.00 L 99.00 91.50 L 99.50 91.00 L 100.00 90.50 L 101.00 90.50 L 101.50 90.00 L 102.00 89.50 L 102.50 90.00 L 103.00 90.50 L 104.00 90.50 L 105.00 90.50 L 105.50 91.00 L 106.00 91.50 L 106.50 91.00 L 107.00 90.50 L 108.00 90.50 L 108.50 90.00 L 109.00 89.50 L 109.50 90.00 L 110.00 90.50 L 111.00 90.50 L 112.00 90.50 L 112.50 91.00 L 113.00 91.50 L 113.50 91.00 L 114.00 90.50 L 115.00 90.50 L 115.50 90.00 L 116.00 89.50 L 116.50 90.00 L 117.00 90.50 L 118.00 90.50 L 119.00 90.50 L 119.50 91.00 L 120.00 91.50 L 120.50 91.00 L 121.00 90.50 L 122.00 90.50 L 122.50 90.00 L 123.00 89.50 L 123.50 90.00 L 124.00 90.50 L 125.00 90.50 L 125.50 91.00 L 126.00 91.50 L 127.00 91.50 L 127.50 91.00 Z" fill="#5a7d5d"/>
<path d="M 121.50 97.00 L 122.00 96.50 L 123.00 96.50 L 124.00 96.50 L 125.00 96.50 L 125.50 96.00 L 126.00 95.50 L 126.50 95.00 L 126.50 94.00 L 126.00 93.50 L 125.00 93.50 L 124.50 93.00 L 124.00 92.50 L 123.00 92.50 L 122.50 93.00 L 122.00 93.50 L 121.00 93.50 L 120.00 93.50 L 119.00 93.50 L 118.00 93.50 L 117.50 93.00 L 117.00 92.50 L 116.00 92.50 L 115.50 93.00 L 115.00 93.50 L 114.00 93.50 L 113.00 93.50 L 112.00 93.50 L 111.00 93.50 L 110.50 93.00 L 110.00 92.50 L 109.00 92.50 L 108.50 93.00 L 108.00 93.50 L 107.00 93.50 L 106.00 93.50 L 105.00 93.50 L 104.00 93.50 L 103.50 93.00 L 103.00 92.50 L 102.00 92.50 L 101.50 93.00 L 101.00 93.50 L 100.00 93.50 L 99.00 93.50 L 98.00 93.50 L 97.00 93.50 L 96.50 93.00 L 96.00 92.50 L 95.00 92.50 L 94.50 93.00 L 94.00 93.50 L 93.00 93.50 L 92.00 93.50 L 91.00 93.50 L 90.00 93.50 L 89.50 93.00 L 89.00 92.50 L 88.00 92.50 L 87.50 93.00 L 87.00 93.50 L 86.00 93.50 L 85.00 93.50 L 84.00 93.50 L 83.00 93.50 L 82.50 93.00 L 82.00 92.50 L 81.00 92.50 L 80.50 93.00 L 80.00 93.50 L 79.00 93.50 L 78.00 93.50 L 77.00 93.50 L 76.00 93.50 L 75.50 93.00 L 75.00 92.50 L 74.00 92.50 L 73.50 93.00 L 73.00 93.50 L 72.00 93.50 L 71.00 93.50 L 70.00 93.50 L 69.00 93.50 L 68.50 93.00 L 68.00 92.50 L 67.00 92.50 L 66.50 93.00 L 66.00 93.50 L 65.00 93.50 L 64.00 93.50 L 63.00 93.50 L 62.00 93.50 L 61.50 93.00 L 61.00 92.50 L 60.00 92.50 L 59.50 93.00 L 59.00 93.50 L 58.00 93.50 L 57.00 93.50 L 56.00 93.50 L 55.00 93.50 L 54.50 93.00 L 54.00 92.50 L 53.00 92.50 L 52.50 93.00 L 52.00 93.50 L 51.00 93.50 L 50.50 94.00 L 50.50 95.00 L 51.00 95.50 L 51.50 96.00 L 52.00 96.50 L 53.00 96.50 L 54.00 96.50 L 55.00 96.50 L 55.50 97.00 L 56.00 97.50 L 57.00 97.50 L 58.00 97.50 L 58.50 97.00 L 59.00 96.50 L 60.00 96.50 L 61.00 96.50 L 62.00 96.50 L 62.50 97.00 L 63.00 97.50 L 64.00 97.50 L 65.00 97.50 L 65.50 97.00 L 66.00 96.50 L 67.00 96.50 L 68.00 96.50 L 69.00 96.50 L 69.50 97.00 L 70.00 97.50 L 71.00 97.50 L 72.00 97.50 L 72.50 97.00 L 73.00 96.50 L 74.00 96.50 L 75.00 96.50 L 76.00 96.50 L 76.50 97.00 L 77.00 97.50 L 78.00 97.50 L 79.00 97.50 L 79.50 97.00 L 80.00 96.50 L 81.00 96.50 L 82.00 96.50 L 83.00 96.50 L 83.50 97.00 L 84.00 97.50 L 85.00 97.50 L 86.00 97.50 L 86.50 97.00 L 87.00 96.50 L 88.00 96.50 L 89.00 96.50 L 90.00 96.50 L 90.50 97.00 L 91.00 97.50 L 92.00 97.50 L 93.00 97.50 L 93.50 97.00 L 94.00 96.50 L 95.00 96.50 L 96.00 96.50 L 97.00 96.50 L 97.50 97.00 L 98.00 97.50 L 99.00 97.50 L 100.00 97.50 L 100.50 97.00 L 101.00 96.50 L 102.00 96.50 L 103.00 96.50 L 104.00 96.50 L 104.50 97.00 L 105.00 97.50 L 106.00 97.50 L 107.00 97.50 L 107.50 97.00 L 108.00 96.50 L 109.00 96.50 L 110.00 96.50 L 111.00 96.50 L 111.50 97.00 L 112.00 97.50 L 113.00 97.50 L 114.00 97.50 L 114.50 97.00 L 115.00 96.50 L 116.00 96.50 L 117.00 96.50 L 118.00 96.50 L 118.50 97.00 L 119.00 97.50 L 120.00 97.50 L 121.00 97.50 L 121.50 97.00 Z" fill="#5a7d5d"/>
<path d="M 115.50 103.00 L 116.00 102.50 L 117.00 102.50 L 118.00 102.50 L 119.00 102.50 L 119.50 102.00 L 120.00 101.50 L 120.50 101.00 L 120.50 100.00 L 120.00 99.50 L 119.00 99.50 L 118.00 99.50 L 117.50 99.00 L 117.00 98.50 L 116.00 98.50 L 115.50 99.00 L 115.00 99.50 L 114.00 99.50 L 113.00 99.50 L 112.00 99.50 L 111.00 99.50 L 110.50 99.00 L 110.00 98.50 L 109.00 98.50 L 108.50 99.00 L 108.00 99.50 L 107.00 99.50 L 106.00 99.50 L 105.00 99.50 L 104.00 99.50 L 103.50 99.00 L 103.00 98.50 L 102.00 98.50 L 101.50 99.00 L 101.00 99.50 L 100.00 99.50 L 99.00 99.50 L 98.00 99.50 L 97.00 99.50 L 96.50 99.00 L 96.00 98.50 L 95.00 98.50 L 94.50 99.00 L 94.00 99.50 L 93.00 99.50 L 92.00 99.50 L 91.00 99.50 L 90.00 99.50 L 89.50 99.00 L 89.00 98.50 L 88.00 98.50 L 87.50 99.00 L 87.00 99.50 L 86.00 99.50 L 85.00 99.50 L 84.00 99.50 L 83.00 99.50 L 82.50 99.00 L 82.00 98.50 L 81.00 98.50 L 80.50 99.00 L 80.00 99.50 L 79.00 99.50 L 78.00 99.50 L 77.00 99.50 L 76.00 99.50 L 75.50 99.00 L 75.00 98.50 L 74.00 98.50 L 73.50 99.00 L 73.00 99.50 L 72.00 99.50 L 71.00 99.50 L 70.00 99.50 L 69.00 99.50 L 68.50 99.00 L 68.00 98.50 L 67.00 98.50 L 66.50 99.00 L 66.00 99.50 L 65.00 99.50 L 64.00 99.50 L 63.00 99.50 L 62.00 99.50 L 61.50 99.00 L 61.00 98.50 L 60.00 98.50 L 59.50 99.00 L 59.00 99.50 L 58.00 99.50 L 57.00 99.50 L 56.50 100.00 L 56.50 101.00 L 57.00 101.50 L 58.00 101.50 L 58.50 102.00 L 59.00 102.50 L 60.00 102.50 L 61.00 102.50 L 61.50 103.00 L 62.00 103.50 L 63.00 103.50 L 64.00 103.50 L 65.00 103.50 L 66.00 103.50 L 66.50 103.00 L 67.00 102.50 L 68.00 102.50 L 68.50 103.00 L 69.00 103.50 L 70.00 103.50 L 71.00 103.50 L 72.00 103.50 L 73.00 103.50 L 73.50 103.00 L 74.00 102.50 L 75.00 102.50 L 75.50 103.00 L 76.00 103.50 L 77.00 103.50 L 78.00 103.50 L 79.00 103.50 L 80.00 103.50 L 80.50 103.00 L 81.00 102.50 L 82.00 102.50 L 82.50 103.00 L 83.00 103.50 L 84.00 103.50 L 85.00 103.50 L 86.00 103.50 L 87.00 103.50 L 87.50 103.00 L 88.00 102.50 L 89.00 102.50 L 89.50 103.00 L 90.00 103.50 L 91.00 103.50 L 92.00 103.50 L 93.00 103.50 L 94.00 103.50 L 94.50 103.00 L 95.00 102.50 L 96.00 102.50 L 96.50 103.00 L 97.00 103.50 L 98.00 103.50 L 99.00 103.50 L 100.00 103.50 L 101.00 103.50 L 101.50 103.00 L 102.00 102.50 L 103.00 102.50 L 103.50 103.00 L 104.00 103.50 L 105.00 103.50 L 106.00 103.50 L 107.00 103.50 L 108.00 103.50 L 108.50 103.00 L 109.00 102.50 L 110.00 102.50 L 110.50 103.00 L 111.00 103.50 L 112.00 103.50 L 113.00 103.50 L 114.00 103.50 L 115.00 103.50 L 115.50 103.00 Z" fill="#5a7d5d"/>
<path d="M 163.00 136.50 L 162.00 136.50 L 161.00 136.50 L 160.00 136.50 L 159.00 136.50 L 158.00 136.50 L 157.00 136.50 L 156.50 136.00 L 157.00 135.50 L 157.50 135.00 L 157.50 134.00 L 157.50 133.00 L 157.50 132.00 L 157.50 131.00 L 158.00 130.50 L 158.50 130.00 L 158.50 129.00 L 158.50 128.00 L 158.50 127.00 L 158.50 126.00 L 159.00 125.50 L 159.50 125.00 L 159.50 124.00 L 159.50 123.00 L 159.50 122.00 L 159.50 121.00 L 160.00 120.50 L 160.50 120.00 L 160.50 119.00 L 160.50 118.00 L 160.50 117.00 L 160.50 116.00 L 161.00 115.50 L 161.50 115.00 L 161.50 114.00 L 161.50 113.00 L 161.50 112.00 L 162.00 111.50 L 162.50 111.00 L 162.50 110.00 L 162.50 109.00 L 162.50 108.00 L 162.00 107.50 L 161.00 107.50 L 160.00 107.50 L 159.00 107.50 L 158.00 107.50 L 157.00 107.50 L 156.00 107.50 L 155.00 107.50 L 154.00 107.50 L 153.00 107.50 L 152.50 107.00 L 152.50 106.00 L 153.00 105.50 L 153.50 105.00 L 153.50 104.00 L 153.50 103.00 L 154.00 102.50 L 155.00 102.50 L 156.00 102.50 L 157.00 102.50 L 158.00 102.50 L 159.00 102.50 L 160.00 102.50 L 161.00 102.50 L 162.00 102.50 L 163.00 102.50 L 164.00 102.50 L 165.00 102.50 L 166.00 102.50 L 167.00 102.50 L 168.00 102.50 L 169.00 102.50 L 170.00 102.50 L 171.00 102.50 L 172.00 102.50 L 173.00 102.50 L 174.00 102.50 L 175.00 102.50 L 176.00 102.50 L 177.00 102.50 L 178.00 102.50 L 179.00 102.50 L 179.50 103.00 L 179.50 104.00 L 179.50 105.00 L 179.50 106.00 L 179.50 107.00 L 179.00 107.50 L 178.00 107.50 L 177.00 107.50 L 176.00 107.50 L 175.00 107.50 L 174.00 107.50 L 173.00 107.50 L 172.00 107.50 L 171.00 107.50 L 170.00 107.50 L 169.50 108.00 L 169.00 108.50 L 168.50 109.00 L 168.50 110.00 L 168.50 111.00 L 168.50 112.00 L 168.00 112.50 L 167.50 113.00 L 167.50 114.00 L 167.50 115.00 L 167.50 116.00 L 167.50 117.00 L 167.00 117.50 L 166.50 118.00 L 166.50 119.00 L 166.50 120.00 L 166.50 121.00 L 166.00 121.50 L 165.50 122.00 L 165.50 123.00 L 165.50 124.00 L 165.50 125.00 L 165.50 126.00 L 165.00 126.50 L 164.50 127.00 L 164.50 128.00 L 164.50 129.00 L 164.50 130.00 L 164.50 131.00 L 164.00 131.50 L 163.50 132.00 L 163.50 133.00 L 163.50 134.00 L 163.50 135.00 L 163.50 136.00 L 163.00 136.50 Z" fill="#5a7d5d"/>
<path d="M 336.00 137.50 L 335.00 137.50 L 334.00 137.50 L 333.00 137.50 L 332.00 137.50 L 331.00 137.50 L 330.00 137.50 L 329.00 137.50 L 328.50 137.00 L 328.00 136.50 L 327.00 136.50 L 326.00 136.50 L 325.50 136.00 L 325.00 135.50 L 324.50 135.00 L 324.00 134.50 L 323.00 134.50 L 322.50 134.00 L 322.50 133.00 L 322.00 132.50 L 321.50 132.00 L 321.00 131.50 L 320.50 131.00 L 320.50 130.00 L 320.50 129.00 L 320.00 128.50 L 319.50 128.00 L 319.50 127.00 L 319.50 126.00 L 319.50 125.00 L 319.50 124.00 L 319.50 123.00 L 319.50 122.00 L 319.50 121.00 L 319.50 120.00 L 319.50 119.00 L 319.50 118.00 L 319.50 117.00 L 320.00 116.50 L 320.50 116.00 L 320.50 115.00 L 320.50 114.00 L 321.00 113.50 L 321.50 113.00 L 321.50 112.00 L 322.00 111.50 L 322.50 111.00 L 322.50 110.00 L 323.00 109.50 L 323.50 109.00 L 324.00 108.50 L 324.50 108.00 L 325.00 107.50 L 325.50 107.00 L 326.00 106.50 L 326.50 106.00 L 327.00 105.50 L 327.50 105.00 L 328.00 104.50 L 329.00 104.50 L 329.50 104.00 L 330.00 103.50 L 331.00 103.50 L 332.00 103.50 L 332.50 103.00 L 333.00 102.50 L 334.00 102.50 L 335.00 102.50 L 336.00 102.50 L 337.00 102.50 L 338.00 102.50 L 339.00 102.50 L 340.00 102.50 L 341.00 102.50 L 342.00 102.50 L 342.50 103.00 L 343.00 103.50 L 344.00 103.50 L 344.50 104.00 L 345.00 104.50 L 345.50 105.00 L 346.00 105.50 L 346.50 106.00 L 347.00 106.50 L 347.50 107.00 L 348.00 107.50 L 348.50 108.00 L 348.50 109.00 L 349.00 109.50 L 349.50 110.00 L 349.50 111.00 L 349.50 112.00 L 349.00 112.50 L 348.00 112.50 L 347.50 113.00 L 347.00 113.50 L 346.00 113.50 L 345.00 113.50 L 344.00 113.50 L 343.50 113.00 L 343.50 112.00 L 343.50 111.00 L 343.00 110.50 L 342.50 110.00 L 342.00 109.50 L 341.50 109.00 L 341.00 108.50 L 340.00 108.50 L 339.50 108.00 L 339.00 107.50 L 338.00 107.50 L 337.00 107.50 L 336.00 107.50 L 335.00 107.50 L 334.50 108.00 L 334.00 108.50 L 333.00 108.50 L 332.50 109.00 L 332.00 109.50 L 331.00 109.50 L 330.50 110.00 L 330.00 110.50 L 329.50 111.00 L 329.00 111.50 L 328.50 112.00 L 328.50 113.00 L 328.00 113.50 L 327.50 114.00 L 327.50 115.00 L 327.00 115.50 L 326.50 116.00 L 326.50 117.00 L 326.50 118.00 L 326.00 118.50 L 325.50 119.00 L 325.50 120.00 L 325.50 121.00 L 325.50 122.00 L 325.50 123.00 L 325.50 124.00 L 325.50 125.00 L 325.50 126.00 L 326.00 126.50 L 326.50 127.00 L 326.50 128.00 L 327.00 128.50 L 327.50 129.00 L 327.50 130.00 L 328.00 130.50 L 328.50 131.00 L 329.00 131.50 L 330.00 131.50 L 330.50 132.00 L 331.00 132.50 L 332.00 132.50 L 333.00 132.50 L 334.00 132.50 L 334.50 132.00 L 335.00 131.50 L 336.00 131.50 L 337.00 131.50 L 337.50 131.00 L 338.00 130.50 L 338.50 130.00 L 339.00 129.50 L 339.50 129.00 L 340.00 128.50 L 340.50 128.00 L 340.50 127.00 L 341.00 126.50 L 341.50 126.00 L 342.00 125.50 L 343.00 125.50 L 344.00 125.50 L 345.00 125.50 L 346.00 125.50 L 347.00 125.50 L 347.50 126.00 L 347.50 127.00 L 347.50 128.00 L 347.00 128.50 L 346.50 129.00 L 346.50 130.00 L 346.00 130.50 L 345.50 131.00 L 345.00 131.50 L 344.50 132.00 L 344.00 132.50 L 343.50 133.00 L 343.00 133.50 L 342.50 134.00 L 342.00 134.50 L 341.50 135.00 L 341.00 135.50 L 340.00 135.50 L 339.50 136.00 L 339.00 136.50 L 338.00 136.50 L 337.00 136.50 L 336.50 137.00 L 336.00 137.50 Z" fill="#5a7d5d"/>
<path d="M 357.00 136.50 L 356.00 136.50 L 355.00 136.50 L 354.00 136.50 L 353.00 136.50 L 352.00 136.50 L 351.50 136.00 L 352.00 135.50 L 352.50 135.00 L 352.50 134.00 L 352.50 133.00 L 352.50 132.00 L 352.50 131.00 L 353.00 130.50 L 353.50 130.00 L 353.50 129.00 L 353.50 128.00 L 353.50 127.00 L 353.50 126.00 L 354.00 125.50 L 354.50 125.00 L 354.50 124.00 L 354.50 123.00 L 354.50 122.00 L 355.00 121.50 L 355.50 121.00 L 355.50 120.00 L 355.50 119.00 L 355.50 118.00 L 355.50 117.00 L 356.00 116.50 L 356.50 116.00 L 356.50 115.00 L 356.50 114.00 L 356.50 113.00 L 356.50 112.00 L 357.00 111.50 L 357.50 111.00 L 357.50 110.00 L 357.50 109.00 L 357.50 108.00 L 357.50 107.00 L 358.00 106.50 L 358.50 106.00 L 358.50 105.00 L 358.50 104.00 L 358.50 103.00 L 359.00 102.50 L 360.00 102.50 L 361.00 102.50 L 362.00 102.50 L 363.00 102.50 L 364.00 102.50 L 364.50 103.00 L 364.50 104.00 L 364.50 105.00 L 364.50 106.00 L 364.00 106.50 L 363.50 107.00 L 363.50 108.00 L 363.50 109.00 L 363.50 110.00 L 363.00 110.50 L 362.50 111.00 L 362.50 112.00 L 362.50 113.00 L 362.50 114.00 L 362.50 115.00 L 362.00 115.50 L 361.50 116.00 L 361.50 117.00 L 361.50 118.00 L 361.50 119.00 L 361.50 120.00 L 361.00 120.50 L 360.50 121.00 L 360.50 122.00 L 360.50 123.00 L 360.50 124.00 L 360.50 125.00 L 360.00 125.50 L 359.50 126.00 L 359.50 127.00 L 359.50 128.00 L 359.50 129.00 L 359.50 130.00 L 359.00 130.50 L 358.50 131.00 L 358.50 132.00 L 358.50 133.00 L 358.50 134.00 L 358.50 135.00 L 358.00 135.50 L 357.50 136.00 L 357.00 136.50 Z" fill="#5a7d5d"/>
<path d="M 411.00 137.50 L 410.00 137.50 L 409.00 137.50 L 408.00 137.50 L 407.00 137.50 L 406.50 137.00 L 406.00 136.50 L 405.00 136.50 L 404.50 136.00 L 404.00 135.50 L 403.50 135.00 L 403.00 134.50 L 402.50 134.00 L 402.00 133.50 L 401.00 133.50 L 400.50 134.00 L 400.50 135.00 L 400.50 136.00 L 400.00 136.50 L 399.00 136.50 L 398.00 136.50 L 397.00 136.50 L 396.00 136.50 L 395.00 136.50 L 394.50 136.00 L 395.00 135.50 L 395.50 135.00 L 395.50 134.00 L 395.50 133.00 L 395.50 132.00 L 395.50 131.00 L 396.00 130.50 L 396.50 130.00 L 396.50 129.00 L 396.50 128.00 L 396.50 127.00 L 396.50 126.00 L 397.00 125.50 L 397.50 125.00 L 397.50 124.00 L 397.50 123.00 L 397.50 122.00 L 397.50 121.00 L 398.00 120.50 L 398.50 120.00 L 398.50 119.00 L 398.50 118.00 L 398.50 117.00 L 399.00 116.50 L 399.50 116.00 L 399.50 115.00 L 399.50 114.00 L 399.50 113.00 L 399.50 112.00 L 400.00 111.50 L 400.50 111.00 L 400.50 110.00 L 400.50 109.00 L 400.50 108.00 L 400.50 107.00 L 401.00 106.50 L 401.50 106.00 L 401.50 105.00 L 401.50 104.00 L 401.50 103.00 L 402.00 102.50 L 403.00 102.50 L 404.00 102.50 L 405.00 102.50 L 406.00 102.50 L 407.00 102.50 L 407.50 103.00 L 407.50 104.00 L 407.50 105.00 L 407.50 106.00 L 407.00 106.50 L 406.50 107.00 L 406.50 108.00 L 406.50 109.00 L 406.50 110.00 L 406.50 111.00 L 406.00 111.50 L 405.50 112.00 L 405.50 113.00 L 405.50 114.00 L 406.00 114.50 L 406.50 114.00 L 407.00 113.50 L 408.00 113.50 L 408.50 113.00 L 409.00 112.50 L 410.00 112.50 L 411.00 112.50 L 412.00 112.50 L 412.50 112.00 L 413.00 111.50 L 413.50 112.00 L 414.00 112.50 L 415.00 112.50 L 416.00 112.50 L 417.00 112.50 L 417.50 113.00 L 418.00 113.50 L 418.50 114.00 L 419.00 114.50 L 419.50 115.00 L 420.00 115.50 L 420.50 116.00 L 420.50 117.00 L 420.50 118.00 L 420.50 119.00 L 421.00 119.50 L 421.50 120.00 L 421.50 121.00 L 421.50 122.00 L 421.50 123.00 L 421.00 123.50 L 420.50 124.00 L 420.50 125.00 L 420.50 126.00 L 420.50 127.00 L 420.50 128.00 L 420.00 128.50 L 419.50 129.00 L 419.50 130.00 L 419.00 130.50 L 418.50 131.00 L 418.50 132.00 L 418.00 132.50 L 417.50 133.00 L 417.00 133.50 L 416.50 134.00 L 416.00 134.50 L 415.50 135.00 L 415.00 135.50 L 414.50 136.00 L 414.00 136.50 L 413.00 136.50 L 412.00 136.50 L 411.50 137.00 L 411.00 137.50 Z" fill="#5a7d5d"/>
<path d="M 104.50 110.00 L 105.00 109.50 L 106.00 109.50 L 107.00 109.50 L 107.50 109.00 L 108.00 108.50 L 109.00 108.50 L 109.50 108.00 L 110.00 107.50 L 111.00 107.50 L 111.50 107.00 L 111.50 106.00 L 111.00 105.50 L 110.00 105.50 L 109.00 105.50 L 108.00 105.50 L 107.50 106.00 L 107.00 106.50 L 106.00 106.50 L 105.00 106.50 L 104.50 106.00 L 104.00 105.50 L 103.00 105.50 L 102.00 105.50 L 101.00 105.50 L 100.50 106.00 L 100.00 106.50 L 99.00 106.50 L 98.00 106.50 L 97.50 106.00 L 97.00 105.50 L 96.00 105.50 L 95.00 105.50 L 94.00 105.50 L 93.50 106.00 L 93.00 106.50 L 92.00 106.50 L 91.00 106.50 L 90.50 106.00 L 90.00 105.50 L 89.00 105.50 L 88.00 105.50 L 87.00 105.50 L 86.50 106.00 L 86.00 106.50 L 85.00 106.50 L 84.00 106.50 L 83.50 106.00 L 83.00 105.50 L 82.00 105.50 L 81.00 105.50 L 80.00 105.50 L 79.50 106.00 L 79.00 106.50 L 78.00 106.50 L 77.00 106.50 L 76.50 106.00 L 76.00 105.50 L 75.00 105.50 L 74.00 105.50 L 73.00 105.50 L 72.50 106.00 L 72.00 106.50 L 71.00 106.50 L 70.00 106.50 L 69.50 106.00 L 69.00 105.50 L 68.00 105.50 L 67.00 105.50 L 66.00 105.50 L 65.50 106.00 L 65.50 107.00 L 66.00 107.50 L 67.00 107.50 L 67.50 108.00 L 68.00 108.50 L 69.00 108.50 L 70.00 108.50 L 70.50 109.00 L 71.00 109.50 L 72.00 109.50 L 73.00 109.50 L 74.00 109.50 L 75.00 109.50 L 75.50 110.00 L 76.00 110.50 L 77.00 110.50 L 77.50 110.00 L 78.00 109.50 L 79.00 109.50 L 80.00 109.50 L 81.00 109.50 L 82.00 109.50 L 82.50 110.00 L 83.00 110.50 L 84.00 110.50 L 84.50 110.00 L 85.00 109.50 L 86.00 109.50 L 87.00 109.50 L 88.00 109.50 L 89.00 109.50 L 89.50 110.00 L 90.00 110.50 L 91.00 110.50 L 91.50 110.00 L 92.00 109.50 L 93.00 109.50 L 94.00 109.50 L 95.00 109.50 L 96.00 109.50 L 96.50 110.00 L 97.00 110.50 L 98.00 110.50 L 98.50 110.00 L 99.00 109.50 L 100.00 109.50 L 101.00 109.50 L 102.00 109.50 L 103.00 109.50 L 103.50 110.00 L 104.00 110.50 L 104.50 110.00 Z" fill="#5a7d5d"/>
<path d="M 55.50 142.00 L 56.00 141.50 L 56.50 141.00 L 57.00 140.50 L 57.50 140.00 L 57.50 139.00 L 58.00 138.50 L 58.50 138.00 L 59.00 137.50 L 59.50 137.00 L 60.00 136.50 L 60.50 136.00 L 61.00 135.50 L 61.50 135.00 L 62.00 134.50 L 62.50 134.00 L 63.00 133.50 L 63.50 133.00 L 64.00 132.50 L 64.50 132.00 L 65.00 131.50 L 65.50 131.00 L 66.00 130.50 L 66.50 130.00 L 67.00 129.50 L 67.50 129.00 L 68.00 128.50 L 69.00 128.50 L 69.50 128.00 L 70.00 127.50 L 70.50 127.00 L 71.00 126.50 L 71.50 126.00 L 72.00 125.50 L 72.50 125.00 L 73.00 124.50 L 73.50 124.00 L 74.00 123.50 L 75.00 123.50 L 75.50 123.00 L 75.50 122.00 L 75.50 121.00 L 75.00 120.50 L 74.50 120.00 L 74.00 119.50 L 73.50 119.00 L 73.00 118.50 L 72.50 118.00 L 72.00 117.50 L 71.00 117.50 L 70.50 117.00 L 70.00 116.50 L 69.50 116.00 L 69.00 115.50 L 68.00 115.50 L 67.50 115.00 L 67.00 114.50 L 66.00 114.50 L 65.00 114.50 L 64.50 114.00 L 64.00 113.50 L 63.00 113.50 L 62.00 113.50 L 61.50 113.00 L 61.00 112.50 L 60.00 112.50 L 59.00 112.50 L 58.00 112.50 L 57.50 112.00 L 57.00 111.50 L 56.00 111.50 L 55.50 112.00 L 55.00 112.50 L 54.50 113.00 L 54.50 114.00 L 54.50 115.00 L 54.50 116.00 L 54.50 117.00 L 54.50 118.00 L 54.50 119.00 L 54.50 120.00 L 54.50 121.00 L 54.00 121.50 L 53.50 122.00 L 53.50 123.00 L 53.50 124.00 L 53.50 125.00 L 53.50 126.00 L 53.50 127.00 L 53.50 128.00 L 53.50 129.00 L 53.50 130.00 L 53.50 131.00 L 53.50 132.00 L 53.50 133.00 L 53.50 134.00 L 53.50 135.00 L 53.50 136.00 L 53.50 137.00 L 53.50 138.00 L 53.50 139.00 L 53.00 139.50 L 52.50 140.00 L 52.50 141.00 L 52.50 142.00 L 53.00 142.50 L 54.00 142.50 L 55.00 142.50 L 55.50 142.00 Z" fill="#5a7d5d"/>
<path d="M 191.00 137.50 L 190.00 137.50 L 189.00 137.50 L 188.00 137.50 L 187.00 137.50 L 186.00 137.50 L 185.00 137.50 L 184.50 137.00 L 184.00 136.50 L 183.00 136.50 L 182.50 136.00 L 182.00 135.50 L 181.00 135.50 L 180.50 135.00 L 180.00 134.50 L 179.50 134.00 L 179.50 133.00 L 179.00 132.50 L 178.50 132.00 L 178.50 131.00 L 178.00 130.50 L 177.50 130.00 L 177.50 129.00 L 177.50 128.00 L 177.50 127.00 L 177.50 126.00 L 177.50 125.00 L 177.50 124.00 L 177.50 123.00 L 177.50 122.00 L 178.00 121.50 L 178.50 121.00 L 178.50 120.00 L 178.50 119.00 L 179.00 118.50 L 179.50 118.00 L 180.00 117.50 L 180.50 117.00 L 180.50 116.00 L 181.00 115.50 L 181.50 115.00 L 182.00 114.50 L 183.00 114.50 L 183.50 114.00 L 184.00 113.50 L 185.00 113.50 L 185.50 113.00 L 186.00 112.50 L 187.00 112.50 L 188.00 112.50 L 189.00 112.50 L 190.00 112.50 L 190.50 112.00 L 191.00 111.50 L 191.50 112.00 L 192.00 112.50 L 193.00 112.50 L 194.00 112.50 L 195.00 112.50 L 195.50 113.00 L 196.00 113.50 L 197.00 113.50 L 197.50 114.00 L 198.00 114.50 L 198.50 115.00 L 198.50 116.00 L 199.00 116.50 L 199.50 117.00 L 199.50 118.00 L 200.00 118.50 L 200.50 119.00 L 200.50 120.00 L 200.50 121.00 L 200.50 122.00 L 200.50 123.00 L 200.50 124.00 L 200.50 125.00 L 200.50 126.00 L 200.00 126.50 L 199.00 126.50 L 198.00 126.50 L 197.00 126.50 L 196.00 126.50 L 195.00 126.50 L 194.00 126.50 L 193.00 126.50 L 192.00 126.50 L 191.00 126.50 L 190.00 126.50 L 189.00 126.50 L 188.00 126.50 L 187.00 126.50 L 186.00 126.50 L 185.00 126.50 L 184.00 126.50 L 183.50 127.00 L 183.00 127.50 L 182.50 128.00 L 183.00 128.50 L 183.50 129.00 L 183.50 130.00 L 184.00 130.50 L 184.50 131.00 L 184.50 132.00 L 185.00 132.50 L 186.00 132.50 L 186.50 133.00 L 187.00 133.50 L 188.00 133.50 L 189.00 133.50 L 190.00 133.50 L 190.50 133.00 L 191.00 132.50 L 191.50 132.00 L 192.00 131.50 L 192.50 131.00 L 193.00 130.50 L 193.50 130.00 L 194.00 129.50 L 194.50 130.00 L 195.00 130.50 L 196.00 130.50 L 197.00 130.50 L 198.00 130.50 L 198.50 131.00 L 198.50 132.00 L 198.00 132.50 L 197.50 133.00 L 197.00 133.50 L 196.50 134.00 L 196.00 134.50 L 195.50 135.00 L 195.00 135.50 L 194.50 136.00 L 194.00 136.50 L 193.00 136.50 L 192.00 136.50 L 191.50 137.00 L 191.00 137.50 Z" fill="#5a7d5d"/>
<path d="M 225.00 136.50 L 224.00 136.50 L 223.00 136.50 L 222.00 136.50 L 221.00 136.50 L 220.00 136.50 L 219.50 136.00 L 220.00 135.50 L 220.50 135.00 L 220.50 134.00 L 220.50 133.00 L 220.50 132.00 L 220.50 131.00 L 221.00 130.50 L 221.50 130.00 L 221.50 129.00 L 221.50 128.00 L 221.50 127.00 L 221.50 126.00 L 222.00 125.50 L 222.50 125.00 L 222.50 124.00 L 222.50 123.00 L 222.50 122.00 L 222.50 121.00 L 223.00 120.50 L 223.50 120.00 L 223.50 119.00 L 223.00 118.50 L 222.50 118.00 L 222.50 117.00 L 222.00 116.50 L 221.00 116.50 L 220.50 116.00 L 220.00 115.50 L 219.50 116.00 L 219.00 116.50 L 218.00 116.50 L 217.00 116.50 L 216.50 117.00 L 216.00 117.50 L 215.50 118.00 L 215.00 118.50 L 214.50 119.00 L 214.00 119.50 L 213.50 120.00 L 213.50 121.00 L 213.00 121.50 L 212.50 122.00 L 212.50 123.00 L 212.50 124.00 L 212.50 125.00 L 212.00 125.50 L 211.50 126.00 L 211.50 127.00 L 211.50 128.00 L 211.50 129.00 L 211.00 129.50 L 210.50 130.00 L 210.50 131.00 L 210.50 132.00 L 210.50 133.00 L 210.50 134.00 L 210.00 134.50 L 209.50 135.00 L 209.50 136.00 L 209.00 136.50 L 208.00 136.50 L 207.00 136.50 L 206.00 136.50 L 205.00 136.50 L 204.00 136.50 L 203.50 136.00 L 203.50 135.00 L 204.00 134.50 L 204.50 134.00 L 204.50 133.00 L 204.50 132.00 L 204.50 131.00 L 204.50 130.00 L 205.00 129.50 L 205.50 129.00 L 205.50 128.00 L 205.50 127.00 L 205.50 126.00 L 205.50 125.00 L 206.00 124.50 L 206.50 124.00 L 206.50 123.00 L 206.50 122.00 L 206.50 121.00 L 207.00 120.50 L 207.50 120.00 L 207.50 119.00 L 207.50 118.00 L 207.50 117.00 L 207.50 116.00 L 208.00 115.50 L 208.50 115.00 L 208.50 114.00 L 208.50 113.00 L 209.00 112.50 L 210.00 112.50 L 211.00 112.50 L 212.00 112.50 L 213.00 112.50 L 214.00 112.50 L 214.50 113.00 L 214.00 113.50 L 213.50 114.00 L 213.50 115.00 L 214.00 115.50 L 215.00 115.50 L 215.50 115.00 L 216.00 114.50 L 216.50 114.00 L 217.00 113.50 L 218.00 113.50 L 218.50 113.00 L 219.00 112.50 L 220.00 112.50 L 221.00 112.50 L 222.00 112.50 L 222.50 112.00 L 223.00 111.50 L 223.50 112.00 L 224.00 112.50 L 225.00 112.50 L 226.00 112.50 L 226.50 113.00 L 227.00 113.50 L 228.00 113.50 L 228.50 114.00 L 228.50 115.00 L 229.00 115.50 L 229.50 116.00 L 229.50 117.00 L 229.50 118.00 L 229.50 119.00 L 229.50 120.00 L 229.00 120.50 L 228.50 121.00 L 228.50 122.00 L 228.50 123.00 L 228.50 124.00 L 228.50 125.00 L 228.00 125.50 L 227.50 126.00 L 227.50 127.00 L 227.50 128.00 L 227.50 129.00 L 227.00 129.50 L 226.50 130.00 L 226.50 131.00 L 226.50 132.00 L 226.50 133.00 L 226.50 134.00 L 226.00 134.50 L 225.50 135.00 L 225.50 136.00 L 225.00 136.50 Z" fill="#5a7d5d"/>
<path d="M 255.00 136.50 L 254.00 136.50 L 253.00 136.50 L 252.00 136.50 L 251.00 136.50 L 250.00 136.50 L 249.50 136.00 L 249.50 135.00 L 249.50 134.00 L 250.00 133.50 L 250.50 133.00 L 250.50 132.00 L 250.50 131.00 L 250.50 130.00 L 250.50 129.00 L 251.00 128.50 L 251.50 128.00 L 251.50 127.00 L 251.50 126.00 L 251.50 125.00 L 251.50 124.00 L 252.00 123.50 L 252.50 123.00 L 252.50 122.00 L 252.50 121.00 L 252.50 120.00 L 252.50 119.00 L 252.50 118.00 L 252.00 117.50 L 251.50 117.00 L 251.00 116.50 L 250.50 116.00 L 250.00 115.50 L 249.00 115.50 L 248.50 116.00 L 248.00 116.50 L 247.00 116.50 L 246.50 117.00 L 246.00 117.50 L 245.50 118.00 L 245.00 118.50 L 244.50 119.00 L 244.00 119.50 L 243.50 120.00 L 243.00 120.50 L 242.50 121.00 L 242.50 122.00 L 242.50 123.00 L 242.00 123.50 L 241.50 124.00 L 241.50 125.00 L 241.50 126.00 L 241.50 127.00 L 241.00 127.50 L 240.50 128.00 L 240.50 129.00 L 240.50 130.00 L 240.50 131.00 L 240.50 132.00 L 240.00 132.50 L 239.50 133.00 L 239.50 134.00 L 239.50 135.00 L 239.50 136.00 L 239.00 136.50 L 238.00 136.50 L 237.00 136.50 L 236.00 136.50 L 235.00 136.50 L 234.00 136.50 L 233.50 136.00 L 233.50 135.00 L 233.50 134.00 L 234.00 133.50 L 234.50 133.00 L 234.50 132.00 L 234.50 131.00 L 234.50 130.00 L 234.50 129.00 L 235.00 128.50 L 235.50 128.00 L 235.50 127.00 L 235.50 126.00 L 235.50 125.00 L 235.50 124.00 L 236.00 123.50 L 236.50 123.00 L 236.50 122.00 L 236.50 121.00 L 236.50 120.00 L 236.50 119.00 L 237.00 118.50 L 237.50 118.00 L 237.50 117.00 L 237.50 116.00 L 237.50 115.00 L 237.50 114.00 L 238.00 113.50 L 238.50 113.00 L 239.00 112.50 L 240.00 112.50 L 241.00 112.50 L 242.00 112.50 L 243.00 112.50 L 243.50 113.00 L 243.50 114.00 L 243.50 115.00 L 244.00 115.50 L 244.50 115.00 L 245.00 114.50 L 246.00 114.50 L 246.50 114.00 L 247.00 113.50 L 247.50 113.00 L 248.00 112.50 L 249.00 112.50 L 250.00 112.50 L 251.00 112.50 L 252.00 112.50 L 252.50 112.00 L 253.00 111.50 L 253.50 112.00 L 254.00 112.50 L 255.00 112.50 L 256.00 112.50 L 256.50 113.00 L 257.00 113.50 L 257.50 114.00 L 258.00 114.50 L 258.50 115.00 L 258.50 116.00 L 258.50 117.00 L 258.50 118.00 L 258.50 119.00 L 258.50 120.00 L 258.50 121.00 L 258.50 122.00 L 258.50 123.00 L 258.00 123.50 L 257.50 124.00 L 257.50 125.00 L 257.50 126.00 L 257.50 127.00 L 257.50 128.00 L 257.00 128.50 L 256.50 129.00 L 256.50 130.00 L 256.50 131.00 L 256.50 132.00 L 256.50 133.00 L 256.00 133.50 L 255.50 134.00 L 255.50 135.00 L 255.50 136.00 L 255.00 136.50 Z" fill="#5a7d5d"/>
<path d="M 291.00 137.50 L 290.00 137.50 L 289.00 137.50 L 288.00 137.50 L 287.00 137.50 L 286.00 137.50 L 285.00 137.50 L 284.00 137.50 L 283.00 137.50 L 282.50 137.00 L 282.00 136.50 L 281.00 136.50 L 280.00 136.50 L 279.50 136.00 L 279.00 135.50 L 278.50 135.00 L 278.00 134.50 L 277.50 134.00 L 277.00 133.50 L 276.50 133.00 L 276.00 132.50 L 275.50 132.00 L 275.50 131.00 L 276.00 130.50 L 277.00 130.50 L 278.00 130.50 L 278.50 130.00 L 279.00 129.50 L 280.00 129.50 L 281.00 129.50 L 281.50 130.00 L 282.00 130.50 L 282.50 131.00 L 282.50 132.00 L 283.00 132.50 L 284.00 132.50 L 284.50 133.00 L 285.00 133.50 L 286.00 133.50 L 287.00 133.50 L 288.00 133.50 L 289.00 133.50 L 289.50 133.00 L 290.00 132.50 L 291.00 132.50 L 291.50 132.00 L 292.00 131.50 L 292.50 131.00 L 292.50 130.00 L 292.00 129.50 L 291.50 129.00 L 291.00 128.50 L 290.50 128.00 L 290.00 127.50 L 289.00 127.50 L 288.00 127.50 L 287.50 127.00 L 287.00 126.50 L 286.00 126.50 L 285.50 126.00 L 285.00 125.50 L 284.00 125.50 L 283.00 125.50 L 282.50 125.00 L 282.00 124.50 L 281.00 124.50 L 280.50 124.00 L 280.50 123.00 L 280.00 122.50 L 279.50 122.00 L 279.50 121.00 L 279.50 120.00 L 279.50 119.00 L 279.50 118.00 L 279.50 117.00 L 280.00 116.50 L 280.50 116.00 L 280.50 115.00 L 281.00 114.50 L 282.00 114.50 L 282.50 114.00 L 283.00 113.50 L 283.50 113.00 L 284.00 112.50 L 285.00 112.50 L 286.00 112.50 L 287.00 112.50 L 288.00 112.50 L 289.00 112.50 L 289.50 112.00 L 290.00 111.50 L 291.00 111.50 L 291.50 112.00 L 292.00 112.50 L 293.00 112.50 L 294.00 112.50 L 295.00 112.50 L 296.00 112.50 L 296.50 113.00 L 297.00 113.50 L 297.50 114.00 L 298.00 114.50 L 298.50 115.00 L 299.00 115.50 L 299.50 116.00 L 299.50 117.00 L 299.00 117.50 L 298.50 118.00 L 298.00 118.50 L 297.00 118.50 L 296.00 118.50 L 295.00 118.50 L 294.50 118.00 L 294.00 117.50 L 293.50 117.00 L 293.00 116.50 L 292.00 116.50 L 291.00 116.50 L 290.50 116.00 L 290.00 115.50 L 289.00 115.50 L 288.00 115.50 L 287.50 116.00 L 287.00 116.50 L 286.00 116.50 L 285.50 117.00 L 285.00 117.50 L 284.50 118.00 L 284.50 119.00 L 285.00 119.50 L 285.50 120.00 L 286.00 120.50 L 287.00 120.50 L 287.50 121.00 L 288.00 121.50 L 289.00 121.50 L 290.00 121.50 L 290.50 122.00 L 291.00 122.50 L 292.00 122.50 L 293.00 122.50 L 293.50 123.00 L 294.00 123.50 L 295.00 123.50 L 295.50 124.00 L 296.00 124.50 L 296.50 125.00 L 297.00 125.50 L 297.50 126.00 L 297.50 127.00 L 298.00 127.50 L 298.50 128.00 L 298.50 129.00 L 298.50 130.00 L 298.50 131.00 L 298.00 131.50 L 297.50 132.00 L 297.50 133.00 L 297.00 133.50 L 296.50 134.00 L 296.00 134.50 L 295.50 135.00 L 295.00 135.50 L 294.00 135.50 L 293.50 136.00 L 293.00 136.50 L 292.00 136.50 L 291.50 137.00 L 291.00 137.50 Z" fill="#5a7d5d"/>
<path d="M 268.00 136.50 L 267.00 136.50 L 266.00 136.50 L 265.00 136.50 L 264.00 136.50 L 263.00 136.50 L 262.50 136.00 L 263.00 135.50 L 263.50 135.00 L 263.50 134.00 L 263.50 133.00 L 263.50 132.00 L 263.50 131.00 L 264.00 130.50 L 264.50 130.00 L 264.50 129.00 L 264.50 128.00 L 264.50 127.00 L 264.50 126.00 L 265.00 125.50 L 265.50 125.00 L 265.50 124.00 L 265.50 123.00 L 265.50 122.00 L 266.00 121.50 L 266.50 121.00 L 266.50 120.00 L 266.50 119.00 L 266.50 118.00 L 266.50 117.00 L 267.00 116.50 L 267.50 116.00 L 267.50 115.00 L 267.50 114.00 L 267.50 113.00 L 268.00 112.50 L 269.00 112.50 L 270.00 112.50 L 271.00 112.50 L 272.00 112.50 L 273.00 112.50 L 273.50 113.00 L 273.50 114.00 L 273.50 115.00 L 273.00 115.50 L 272.50 116.00 L 272.50 117.00 L 272.50 118.00 L 272.50 119.00 L 272.50 120.00 L 272.00 120.50 L 271.50 121.00 L 271.50 122.00 L 271.50 123.00 L 271.50 124.00 L 271.50 125.00 L 271.00 125.50 L 270.50 126.00 L 270.50 127.00 L 270.50 128.00 L 270.50 129.00 L 270.50 130.00 L 270.00 130.50 L 269.50 131.00 L 269.50 132.00 L 269.50 133.00 L 269.50 134.00 L 269.50 135.00 L 269.00 135.50 L 268.50 136.00 L 268.00 136.50 Z" fill="#5a7d5d"/>
<path d="M 375.00 137.50 L 374.00 137.50 L 373.00 137.50 L 372.00 137.50 L 371.00 137.50 L 370.50 137.00 L 370.00 136.50 L 369.00 136.50 L 368.50 136.00 L 368.00 135.50 L 367.50 135.00 L 367.50 134.00 L 367.00 133.50 L 366.50 133.00 L 366.50 132.00 L 366.50 131.00 L 366.50 130.00 L 366.50 129.00 L 367.00 128.50 L 367.50 128.00 L 367.50 127.00 L 367.50 126.00 L 367.50 125.00 L 367.50 124.00 L 368.00 123.50 L 368.50 123.00 L 368.50 122.00 L 368.50 121.00 L 368.50 120.00 L 368.50 119.00 L 369.00 118.50 L 369.50 118.00 L 369.50 117.00 L 369.50 116.00 L 369.50 115.00 L 369.50 114.00 L 370.00 113.50 L 370.50 113.00 L 371.00 112.50 L 372.00 112.50 L 373.00 112.50 L 374.00 112.50 L 375.00 112.50 L 376.00 112.50 L 376.50 113.00 L 376.00 113.50 L 375.50 114.00 L 375.50 115.00 L 375.50 116.00 L 375.50 117.00 L 375.50 118.00 L 375.00 118.50 L 374.50 119.00 L 374.50 120.00 L 374.50 121.00 L 374.50 122.00 L 374.50 123.00 L 374.00 123.50 L 373.50 124.00 L 373.50 125.00 L 373.50 126.00 L 373.50 127.00 L 373.50 128.00 L 373.00 128.50 L 372.50 129.00 L 372.50 130.00 L 372.50 131.00 L 373.00 131.50 L 373.50 132.00 L 374.00 132.50 L 374.50 133.00 L 375.00 133.50 L 376.00 133.50 L 377.00 133.50 L 377.50 133.00 L 378.00 132.50 L 379.00 132.50 L 379.50 132.00 L 380.00 131.50 L 380.50 131.00 L 381.00 130.50 L 381.50 130.00 L 382.00 129.50 L 382.50 129.00 L 382.50 128.00 L 383.00 127.50 L 383.50 127.00 L 383.50 126.00 L 383.50 125.00 L 383.50 124.00 L 384.00 123.50 L 384.50 123.00 L 384.50 122.00 L 384.50 121.00 L 384.50 120.00 L 385.00 119.50 L 385.50 119.00 L 385.50 118.00 L 385.50 117.00 L 385.50 116.00 L 385.50 115.00 L 386.00 114.50 L 386.50 114.00 L 386.50 113.00 L 387.00 112.50 L 388.00 112.50 L 389.00 112.50 L 390.00 112.50 L 391.00 112.50 L 392.00 112.50 L 392.50 113.00 L 392.00 113.50 L 391.50 114.00 L 391.50 115.00 L 391.50 116.00 L 391.50 117.00 L 391.50 118.00 L 391.00 118.50 L 390.50 119.00 L 390.50 120.00 L 390.50 121.00 L 390.50 122.00 L 390.50 123.00 L 390.00 123.50 L 389.50 124.00 L 389.50 125.00 L 389.50 126.00 L 389.50 127.00 L 389.50 128.00 L 389.00 128.50 L 388.50 129.00 L 388.50 130.00 L 388.50 131.00 L 388.50 132.00 L 388.50 133.00 L 388.00 133.50 L 387.50 134.00 L 387.50 135.00 L 387.50 136.00 L 387.00 136.50 L 386.00 136.50 L 385.00 136.50 L 384.00 136.50 L 383.00 136.50 L 382.00 136.50 L 381.50 136.00 L 382.00 135.50 L 382.50 135.00 L 382.50 134.00 L 382.00 133.50 L 381.50 134.00 L 381.00 134.50 L 380.00 134.50 L 379.50 135.00 L 379.00 135.50 L 378.50 136.00 L 378.00 136.50 L 377.00 136.50 L 376.00 136.50 L 375.50 137.00 L 375.00 137.50 Z" fill="#5a7d5d"/>
<path d="M 194.50 123.00 L 195.00 122.50 L 195.50 122.00 L 195.50 121.00 L 195.00 120.50 L 194.50 120.00 L 194.50 119.00 L 194.50 118.00 L 194.00 117.50 L 193.50 117.00 L 193.00 116.50 L 192.00 116.50 L 191.00 116.50 L 190.50 116.00 L 190.00 115.50 L 189.50 116.00 L 189.00 116.50 L 188.00 116.50 L 187.00 116.50 L 186.50 117.00 L 186.00 117.50 L 185.50 118.00 L 185.00 118.50 L 184.50 119.00 L 184.50 120.00 L 184.50 121.00 L 184.00 121.50 L 183.50 122.00 L 184.00 122.50 L 184.50 123.00 L 185.00 123.50 L 185.50 123.00 L 186.00 122.50 L 186.50 123.00 L 187.00 123.50 L 188.00 123.50 L 189.00 123.50 L 190.00 123.50 L 191.00 123.50 L 192.00 123.50 L 193.00 123.50 L 194.00 123.50 L 194.50 123.00 Z" fill="#5a7d5d"/>
<path d="M 408.50 133.00 L 409.00 132.50 L 410.00 132.50 L 411.00 132.50 L 411.50 132.00 L 412.00 131.50 L 412.50 131.00 L 413.00 130.50 L 413.50 130.00 L 413.50 129.00 L 414.00 128.50 L 414.50 128.00 L 414.50 127.00 L 414.50 126.00 L 415.00 125.50 L 415.50 125.00 L 415.50 124.00 L 415.50 123.00 L 415.50 122.00 L 415.50 121.00 L 415.50 120.00 L 415.00 119.50 L 414.50 119.00 L 414.50 118.00 L 414.00 117.50 L 413.50 117.00 L 413.00 116.50 L 412.00 116.50 L 411.50 116.00 L 411.00 115.50 L 410.00 115.50 L 409.50 116.00 L 409.00 116.50 L 408.00 116.50 L 407.50 117.00 L 407.00 117.50 L 406.50 118.00 L 406.00 118.50 L 405.50 119.00 L 405.00 119.50 L 404.50 120.00 L 404.50 121.00 L 404.00 121.50 L 403.50 122.00 L 403.50 123.00 L 403.50 124.00 L 403.50 125.00 L 403.00 125.50 L 402.50 126.00 L 402.50 127.00 L 402.50 128.00 L 403.00 128.50 L 403.50 129.00 L 403.50 130.00 L 404.00 130.50 L 404.50 131.00 L 405.00 131.50 L 405.50 132.00 L 406.00 132.50 L 407.00 132.50 L 407.50 133.00 L 408.00 133.50 L 408.50 133.00 Z" fill="#5a7d5d"/>
<path d="M 209.00 176.50 L 208.00 176.50 L 207.00 176.50 L 206.00 176.50 L 205.00 176.50 L 204.00 176.50 L 203.00 176.50 L 202.00 176.50 L 201.00 176.50 L 200.00 176.50 L 199.00 176.50 L 198.00 176.50 L 197.50 176.00 L 198.00 175.50 L 198.50 175.00 L 198.50 174.00 L 198.50 173.00 L 198.50 172.00 L 198.50 171.00 L 199.00 170.50 L 199.50 170.00 L 199.50 169.00 L 199.50 168.00 L 199.50 167.00 L 200.00 166.50 L 200.50 166.00 L 200.50 165.00 L 200.50 164.00 L 200.50 163.00 L 200.50 162.00 L 201.00 161.50 L 202.00 161.50 L 203.00 161.50 L 204.00 161.50 L 205.00 161.50 L 206.00 161.50 L 207.00 161.50 L 208.00 161.50 L 209.00 161.50 L 210.00 161.50 L 211.00 161.50 L 211.50 162.00 L 211.50 163.00 L 211.00 163.50 L 210.00 163.50 L 209.00 163.50 L 208.00 163.50 L 207.00 163.50 L 206.00 163.50 L 205.00 163.50 L 204.00 163.50 L 203.00 163.50 L 202.50 164.00 L 202.50 165.00 L 202.50 166.00 L 202.50 167.00 L 202.50 168.00 L 203.00 168.50 L 204.00 168.50 L 205.00 168.50 L 206.00 168.50 L 207.00 168.50 L 208.00 168.50 L 208.50 168.00 L 209.00 167.50 L 209.50 168.00 L 209.50 169.00 L 209.00 169.50 L 208.00 169.50 L 207.00 169.50 L 206.00 169.50 L 205.00 169.50 L 204.00 169.50 L 203.00 169.50 L 202.00 169.50 L 201.50 170.00 L 201.50 171.00 L 201.00 171.50 L 200.50 172.00 L 200.50 173.00 L 200.50 174.00 L 201.00 174.50 L 202.00 174.50 L 203.00 174.50 L 204.00 174.50 L 205.00 174.50 L 206.00 174.50 L 207.00 174.50 L 208.00 174.50 L 209.00 174.50 L 209.50 175.00 L 209.50 176.00 L 209.00 176.50 Z" fill="#5a7d5d"/>
<path d="M 251.00 176.50 L 250.00 176.50 L 249.00 176.50 L 248.00 176.50 L 247.00 176.50 L 246.50 176.00 L 246.00 175.50 L 245.00 175.50 L 244.50 176.00 L 244.00 176.50 L 243.00 176.50 L 242.50 176.00 L 243.00 175.50 L 243.50 175.00 L 243.50 174.00 L 243.50 173.00 L 243.50 172.00 L 244.00 171.50 L 244.50 171.00 L 244.50 170.00 L 244.50 169.00 L 244.50 168.00 L 244.50 167.00 L 245.00 166.50 L 245.50 166.00 L 245.50 165.00 L 245.50 164.00 L 245.50 163.00 L 246.00 162.50 L 246.50 162.00 L 247.00 161.50 L 247.50 162.00 L 247.50 163.00 L 247.50 164.00 L 247.50 165.00 L 247.50 166.00 L 248.00 166.50 L 249.00 166.50 L 249.50 166.00 L 250.00 165.50 L 250.50 166.00 L 251.00 166.50 L 252.00 166.50 L 253.00 166.50 L 253.50 167.00 L 253.50 168.00 L 253.50 169.00 L 254.00 169.50 L 254.50 170.00 L 254.00 170.50 L 253.50 171.00 L 253.50 172.00 L 253.50 173.00 L 253.50 174.00 L 253.00 174.50 L 252.50 175.00 L 252.00 175.50 L 251.50 176.00 L 251.00 176.50 Z" fill="#5a7d5d"/>
<path d="M 314.00 176.50 L 313.00 176.50 L 312.50 176.00 L 312.00 175.50 L 311.00 175.50 L 310.50 176.00 L 310.00 176.50 L 309.00 176.50 L 308.00 176.50 L 307.00 176.50 L 306.50 176.00 L 306.00 175.50 L 305.50 175.00 L 305.50 174.00 L 305.50 173.00 L 305.50 172.00 L 305.50 171.00 L 305.50 170.00 L 305.50 169.00 L 306.00 168.50 L 306.50 168.00 L 307.00 167.50 L 307.50 167.00 L 308.00 166.50 L 309.00 166.50 L 309.50 166.00 L 310.00 165.50 L 311.00 165.50 L 311.50 166.00 L 312.00 166.50 L 312.50 167.00 L 313.00 167.50 L 314.00 167.50 L 314.50 167.00 L 314.50 166.00 L 314.50 165.00 L 314.50 164.00 L 314.50 163.00 L 315.00 162.50 L 315.50 162.00 L 316.00 161.50 L 316.50 162.00 L 317.00 162.50 L 317.50 163.00 L 317.00 163.50 L 316.50 164.00 L 316.50 165.00 L 316.50 166.00 L 316.50 167.00 L 316.00 167.50 L 315.50 168.00 L 315.50 169.00 L 315.50 170.00 L 315.50 171.00 L 315.50 172.00 L 315.00 172.50 L 314.50 173.00 L 314.50 174.00 L 314.50 175.00 L 314.50 176.00 L 314.00 176.50 Z" fill="#5a7d5d"/>
<path d="M 342.00 176.50 L 341.00 176.50 L 340.00 176.50 L 339.00 176.50 L 338.00 176.50 L 337.50 176.00 L 337.00 175.50 L 336.50 175.00 L 336.50 174.00 L 337.00 173.50 L 338.00 173.50 L 338.50 174.00 L 339.00 174.50 L 339.50 175.00 L 340.00 175.50 L 340.50 175.00 L 341.00 174.50 L 341.50 174.00 L 342.00 173.50 L 342.50 173.00 L 342.50 172.00 L 342.00 171.50 L 341.00 171.50 L 340.00 171.50 L 339.00 171.50 L 338.50 171.00 L 338.00 170.50 L 337.50 170.00 L 337.50 169.00 L 337.50 168.00 L 337.50 167.00 L 337.50 166.00 L 337.50 165.00 L 337.50 164.00 L 338.00 163.50 L 338.50 163.00 L 339.00 162.50 L 340.00 162.50 L 340.50 162.00 L 341.00 161.50 L 342.00 161.50 L 342.50 162.00 L 343.00 162.50 L 344.00 162.50 L 344.50 163.00 L 345.00 163.50 L 345.50 164.00 L 345.50 165.00 L 345.50 166.00 L 345.50 167.00 L 345.50 168.00 L 345.50 169.00 L 345.50 170.00 L 345.50 171.00 L 345.50 172.00 L 345.00 172.50 L 344.50 173.00 L 344.50 174.00 L 344.00 174.50 L 343.50 175.00 L 343.00 175.50 L 342.50 176.00 L 342.00 176.50 Z" fill="#5a7d5d"/>
</svg>